<svg width="1440" height="858" viewBox="0 0 1440 858" fill="none" xmlns="http://www.w3.org/2000/svg">
<g opacity="0.5" clip-path="url(#clip0_330_436)">
<rect width="1849" height="918" transform="translate(-205 -60)" fill="url(#paint0_linear_330_436)"/>
<path d="M1541.8 412.68L1490.67 383.16M1541.8 412.68L1550.18 407.84M1541.8 412.68L1490.68 442.19M1490.67 383.16L1439.55 353.65M1490.67 383.16L1439.55 412.68M1439.55 353.65L1388.43 324.13M1439.55 353.65L1388.43 383.16M1388.43 324.13L1337.3 294.62M1388.43 324.13L1337.31 353.65M1337.3 294.62L1286.18 265.1M1337.3 294.62L1286.18 324.13M1286.18 265.1L1235.07 235.59M1286.18 265.1L1235.06 294.62M1235.07 235.59L1183.94 206.07M1235.07 235.59L1183.94 265.1M1183.94 206.07L1132.82 176.56M1183.94 206.07L1132.82 235.59M1132.82 176.56L1081.7 147.04M1132.82 176.56L1081.7 206.07M1081.7 147.04L1030.57 117.52M1081.7 147.04L1030.57 176.56M1030.57 117.52L979.45 88.0101M1030.57 117.52L979.45 147.04M979.45 88.0101L928.33 58.4901M979.45 88.0101L928.33 117.52M928.33 58.4901L877.2 28.9801M928.33 58.4901L877.21 88.0101M877.2 28.9801L826.08 -0.539948M877.2 28.9801L826.08 58.4901M826.08 -0.539948L774.96 -30.0499M826.08 -0.539948L774.96 28.9801M774.96 -30.0499L723.84 -59.5699L672.72 -30.0499M774.96 -30.0499L723.84 -0.539948M1592.92 501.22L1541.8 471.71M1592.92 501.22L1601.31 496.38M1592.92 501.22L1541.8 530.74M1541.8 471.71L1490.68 442.19M1541.8 471.71L1575.75 452.11M1541.8 471.71L1490.68 501.22M1490.68 442.19L1439.55 412.68M1490.68 442.19L1439.56 471.71M1439.55 412.68L1388.43 383.16M1439.55 412.68L1388.43 442.19M1388.43 383.16L1337.31 353.65M1388.43 383.16L1337.31 412.68M1337.31 353.65L1286.18 324.13M1337.31 353.65L1286.19 383.16M1286.18 324.13L1235.06 294.62M1286.18 324.13L1235.06 353.64M1235.06 294.62L1183.94 265.1M1235.06 294.62L1183.94 324.13M1183.94 265.1L1132.82 235.59M1183.94 265.1L1132.82 294.62M1132.82 235.59L1081.7 206.07M1132.82 235.59L1081.7 265.1M1081.7 206.07L1030.57 176.56M1081.7 206.07L1030.58 235.59M1030.57 176.56L979.45 147.04M1030.57 176.56L979.45 206.07M979.45 147.04L928.33 117.52M979.45 147.04L928.33 176.55M928.33 117.52L877.21 88.0101M928.33 117.52L877.21 147.04M877.21 88.0101L826.08 58.4901M877.21 88.0101L826.09 117.52M826.08 58.4901L774.96 28.9801M826.08 58.4901L774.96 88.01M774.96 28.9801L723.84 -0.539948M774.96 28.9801L723.84 58.4901M723.84 -0.539948L672.72 -30.0499M723.84 -0.539948L672.72 28.9801M672.72 -30.0499L621.6 -0.539948M1592.92 560.25L1644.05 589.77L1592.92 619.29M1592.92 560.25L1541.8 530.74M1592.92 560.25L1626.87 540.65M1592.92 560.25L1541.79 589.77M1541.8 530.74L1490.68 501.22M1541.8 530.74L1490.67 560.26M1490.68 501.22L1439.56 471.71M1490.68 501.22L1439.55 530.74M1439.56 471.71L1388.43 442.19M1439.56 471.71L1388.43 501.23M1388.43 442.19L1337.31 412.68M1388.43 442.19L1337.3 471.71M1337.31 412.68L1286.19 383.16M1337.31 412.68L1286.18 442.19M1286.19 383.16L1235.06 353.64M1286.19 383.16L1235.07 412.68M1235.06 353.64L1183.94 324.13M1235.06 353.64L1183.94 383.16M1183.94 324.13L1132.82 294.62M1183.94 324.13L1132.82 353.65M1132.82 294.62L1081.7 265.1M1132.82 294.62L1081.7 324.13M1081.7 265.1L1030.58 235.59M1081.7 265.1L1030.57 294.62M1030.58 235.59L979.45 206.07M1030.58 235.59L979.45 265.1M979.45 206.07L928.33 176.55M979.45 206.07L928.33 235.59M928.33 176.55L877.21 147.04M928.33 176.55L877.21 206.07M877.21 147.04L826.09 117.52M877.21 147.04L826.08 176.55M826.09 117.52L774.96 88.01M826.09 117.52L774.96 147.04M774.96 88.01L723.84 58.4901M774.96 88.01L723.84 117.52M723.84 58.4901L672.72 28.9801M723.84 58.4901L672.72 88.01M672.72 28.9801L621.6 -0.539948M672.72 28.9801L621.6 58.4901M621.6 -0.539948L570.48 28.9801M570.48 28.9801L621.6 58.4901M570.48 28.9801L519.35 58.4901M621.6 58.4901L672.72 88.01M621.6 58.4901L570.47 88.01M672.72 88.01L723.84 117.52M672.72 88.01L621.59 117.52M723.84 117.52L774.96 147.04M723.84 117.52L672.72 147.04M774.96 147.04L826.08 176.55M774.96 147.04L723.84 176.56M826.08 176.55L877.21 206.07M826.08 176.55L774.96 206.07M877.21 206.07L928.33 235.59M877.21 206.07L826.08 235.58M928.33 235.59L979.45 265.1M928.33 235.59L877.21 265.1M979.45 265.1L1030.57 294.62M979.45 265.1L928.33 294.62M1030.57 294.62L1081.7 324.13M1030.57 294.62L979.45 324.13M1081.7 324.13L1132.82 353.65M1081.7 324.13L1030.58 353.65M1132.82 353.65L1183.94 383.16M1132.82 353.65L1081.7 383.16M1183.94 383.16L1235.07 412.68M1183.94 383.16L1132.82 412.68M1235.07 412.68L1286.18 442.19M1235.07 412.68L1183.94 442.19M1286.18 442.19L1337.3 471.71M1286.18 442.19L1235.06 471.71M1337.3 471.71L1388.43 501.23M1337.3 471.71L1286.18 501.22M1388.43 501.23L1439.55 530.74M1388.43 501.23L1337.31 530.74M1439.55 530.74L1490.67 560.26M1439.55 530.74L1388.43 560.26M1490.67 560.26L1541.79 589.77M1490.67 560.26L1439.55 589.77M1541.79 589.77L1592.92 619.29M1541.79 589.77L1490.67 619.28M1592.92 619.29L1626.87 638.89M1592.92 619.29L1541.8 648.8M519.35 58.4901L570.47 88.01M519.35 58.4901L468.23 88.0101M570.47 88.01L621.59 117.52M570.47 88.01L519.35 117.52M621.59 117.52L672.72 147.04M621.59 117.52L570.47 147.04M672.72 147.04L723.84 176.56M672.72 147.04L621.6 176.55M723.84 176.56L774.96 206.07M723.84 176.56L672.72 206.07M774.96 206.07L826.08 235.58M774.96 206.07L723.84 235.58M826.08 235.58L877.21 265.1M826.08 235.58L774.96 265.1M877.21 265.1L928.33 294.62M877.21 265.1L826.09 294.62M928.33 294.62L979.45 324.13M928.33 294.62L877.21 324.13M979.45 324.13L1030.58 353.65M979.45 324.13L928.33 353.65M1030.58 353.65L1081.7 383.16M1030.58 353.65L979.46 383.16M1081.7 383.16L1132.82 412.68M1081.7 383.16L1030.58 412.68M1132.82 412.68L1183.94 442.19M1132.82 412.68L1081.7 442.19M1183.94 442.19L1235.06 471.71M1183.94 442.19L1132.82 471.71M1235.06 471.71L1286.18 501.22M1235.06 471.71L1183.94 501.22M1286.18 501.22L1337.31 530.74M1286.18 501.22L1235.07 530.74M1337.31 530.74L1388.43 560.26M1337.31 530.74L1286.19 560.25M1388.43 560.26L1439.55 589.77M1388.43 560.26L1337.31 589.77M1439.55 589.77L1490.67 619.28M1439.55 589.77L1388.43 619.28M1490.67 619.28L1541.8 648.8M1490.67 619.28L1439.55 648.8M1541.8 648.8L1592.92 678.32M1541.8 648.8L1490.68 678.32M1592.92 678.32L1601.31 683.16M1592.92 678.32L1541.8 707.83M1541.8 707.83L1490.68 678.32M1541.8 707.83L1490.67 737.35M1490.68 678.32L1439.55 648.8M1490.68 678.32L1439.55 707.84M1439.55 648.8L1388.43 619.28M1439.55 648.8L1388.42 678.32M1388.43 619.28L1337.31 589.77M1388.43 619.28L1337.3 648.8M1337.31 589.77L1286.19 560.25M1337.31 589.77L1286.18 619.29M1286.19 560.25L1235.07 530.74M1286.19 560.25L1235.06 589.77M1235.07 530.74L1183.94 501.22M1235.07 530.74L1183.94 560.26M1183.94 501.22L1132.82 471.71M1183.94 501.22L1132.81 530.74M1132.82 471.71L1081.7 442.19M1132.82 471.71L1081.7 501.23M1081.7 442.19L1030.58 412.68M1081.7 442.19L1030.57 471.71M1030.58 412.68L979.46 383.16M1030.58 412.68L979.45 442.19M979.46 383.16L928.33 353.65M979.46 383.16L928.33 412.68M928.33 353.65L877.21 324.13M928.33 353.65L877.21 383.16M877.21 324.13L826.09 294.62M877.21 324.13L826.09 353.65M826.09 294.62L774.96 265.1M826.09 294.62L774.96 324.13M774.96 265.1L723.84 235.58M774.96 265.1L723.84 294.62M723.84 235.58L672.72 206.07M723.84 235.58L672.72 265.1M672.72 206.07L621.6 176.55M672.72 206.07L621.6 235.58M621.6 176.55L570.47 147.04M621.6 176.55L570.47 206.07M570.47 147.04L519.35 117.52M570.47 147.04L519.35 176.55M519.35 117.52L468.23 88.0101M519.35 117.52L468.23 147.04M468.23 88.0101L417.11 117.52M417.11 117.52L468.23 147.04M417.11 117.52L365.98 147.04M468.23 147.04L519.35 176.55M468.23 147.04L417.11 176.56M519.35 176.55L570.47 206.07M519.35 176.55L468.23 206.07M570.47 206.07L621.6 235.58M570.47 206.07L519.35 235.59M621.6 235.58L672.72 265.1M621.6 235.58L570.47 265.1M672.72 265.1L723.84 294.62M672.72 265.1L621.59 294.62M723.84 294.62L774.96 324.13M723.84 294.62L672.72 324.13M774.96 324.13L826.09 353.65M774.96 324.13L723.84 353.65M826.09 353.65L877.21 383.16M826.09 353.65L774.96 383.16M877.21 383.16L928.33 412.68M877.21 383.16L826.08 412.68M928.33 412.68L979.45 442.19M928.33 412.68L877.21 442.2M979.45 442.19L1030.57 471.71M979.45 442.19L928.33 471.71M1030.57 471.71L1081.7 501.23M1030.57 471.71L979.45 501.23M1081.7 501.23L1132.81 530.74M1081.7 501.23L1030.57 530.74M1132.81 530.74L1183.94 560.26M1132.81 530.74L1081.69 560.26M1183.94 560.26L1235.06 589.77M1183.94 560.26L1132.82 589.77M1235.06 589.77L1286.18 619.29M1235.06 589.77L1183.94 619.29M1286.18 619.29L1337.3 648.8M1286.18 619.29L1235.07 648.8M1337.3 648.8L1388.42 678.32M1337.3 648.8L1286.18 678.32M1388.42 678.32L1439.55 707.84M1388.42 678.32L1337.3 707.83M1439.55 707.84L1490.67 737.35M1439.55 707.84L1388.43 737.35M1490.67 737.35L1541.79 766.86M1490.67 737.35L1439.55 766.86M1541.79 766.86L1550.18 771.71M1541.79 766.86L1490.67 796.38M1490.67 796.38L1439.55 766.86M1490.67 796.38L1439.55 825.89M1439.55 766.86L1388.43 737.35M1439.55 766.86L1388.43 796.38M1388.43 737.35L1337.3 707.83M1388.43 737.35L1337.31 766.86M1337.3 707.83L1286.18 678.32M1337.3 707.83L1286.18 737.35M1286.18 678.32L1235.07 648.8M1286.18 678.32L1235.06 707.83M1235.07 648.8H1235.06M1235.06 648.8L1183.94 619.29M1235.06 648.8L1183.94 678.32M1183.94 619.29L1132.82 589.77M1183.94 619.29L1132.82 648.8M1132.82 589.77L1081.69 560.26M1132.82 589.77L1081.7 619.29M1081.69 560.26L1030.57 530.74M1081.69 560.26L1030.57 589.77M1030.57 530.74L979.45 501.23M1030.57 530.74L979.45 560.26M979.45 501.23L928.33 471.71M979.45 501.23L928.33 530.74M928.33 471.71L877.21 442.2M928.33 471.71L877.21 501.22M877.21 442.2L826.08 412.68M877.21 442.2L826.09 471.71M826.08 412.68L774.96 383.16M826.08 412.68L774.96 442.19M774.96 383.16L723.84 353.65M774.96 383.16L723.84 412.68M723.84 353.65L672.72 324.13M723.84 353.65L672.72 383.16M672.72 324.13L621.59 294.62M672.72 324.13L621.59 353.65M621.59 294.62L570.47 265.1M621.59 294.62L570.47 324.13M570.47 265.1L519.35 235.59M570.47 265.1L519.35 294.62M519.35 235.59L468.23 206.07M519.35 235.59L468.23 265.1M468.23 206.07L417.11 176.56M468.23 206.07L417.1 235.59M417.11 176.56L365.98 147.04M417.11 176.56L365.98 206.07M365.98 147.04L314.86 176.56M1439.55 825.89L1388.43 796.38M1439.55 825.89L1388.42 855.41M1388.43 796.38L1337.31 766.86M1388.43 796.38L1337.3 825.9M1337.31 766.86L1286.18 737.35M1337.31 766.86L1286.18 796.38M1286.18 737.35L1235.06 707.83M1286.18 737.35L1235.06 766.86M1235.06 707.83L1183.94 678.32M1235.06 707.83L1183.94 737.35M1183.94 678.32L1132.82 648.8M1183.94 678.32L1132.82 707.84M1132.82 648.8L1081.7 619.29M1132.82 648.8L1081.7 678.32M1081.7 619.29L1030.57 589.77M1081.7 619.29L1030.57 648.8M1030.57 589.77L979.45 560.26M1030.57 589.77L979.45 619.29M979.45 560.26L928.33 530.74M979.45 560.26L928.33 589.77M928.33 530.74L877.21 501.22M928.33 530.74L877.2 560.26M877.21 501.22L826.09 471.71M877.21 501.22L826.08 530.74M826.09 471.71L774.96 442.19M826.09 471.71L774.96 501.23M774.96 442.19L723.84 412.68M774.96 442.19L723.84 471.71M723.84 412.68L672.72 383.16M723.84 412.68L672.72 442.19M672.72 383.16L621.59 353.65M672.72 383.16L621.6 412.68M621.59 353.65L570.47 324.13M621.59 353.65L570.47 383.16M570.47 324.13L519.35 294.62M570.47 324.13L519.35 353.65M519.35 294.62L468.23 265.1M519.35 294.62L468.23 324.13M468.23 265.1L417.1 235.59M468.23 265.1L417.11 294.62M417.1 235.59L365.98 206.07M417.1 235.59L365.98 265.1M365.98 206.07L314.86 176.56M365.98 206.07L314.86 235.59M314.86 176.56L263.74 206.07M1388.42 855.41L1337.3 825.9M1388.42 855.41L1337.31 884.92H1337.3M1337.3 825.9L1286.18 796.38M1337.3 825.9L1286.18 855.41M1286.18 796.38L1235.06 766.86M1286.18 796.38L1235.06 825.9M1235.06 766.86L1183.94 737.35M1235.06 766.86L1183.94 796.38M1183.94 737.35L1132.82 707.84M1183.94 737.35L1132.82 766.86M1132.82 707.84L1081.7 678.32M1132.82 707.84L1081.7 737.35M1081.7 678.32L1030.57 648.8M1081.7 678.32L1030.57 707.84M1030.57 648.8L979.45 619.29M1030.57 648.8L979.45 678.32M979.45 619.29L928.33 589.77M979.45 619.29L928.33 648.8M928.33 589.77L877.2 560.26M928.33 589.77L877.21 619.29M877.2 560.26L826.08 530.74M877.2 560.26L826.08 589.77M826.08 530.74L774.96 501.23M826.08 530.74L774.96 560.26M774.96 501.23L723.84 471.71M774.96 501.23L723.84 530.74M723.84 471.71L672.72 442.19M723.84 471.71L672.72 501.23M672.72 442.19L621.6 412.68M672.72 442.19L621.59 471.71M621.6 412.68L570.47 383.16M621.6 412.68L570.47 442.2M570.47 383.16L519.35 353.65M570.47 383.16L519.35 412.68M519.35 353.65L468.23 324.13M519.35 353.65L468.22 383.16M468.23 324.13L417.11 294.62M468.23 324.13L417.1 353.65M417.11 294.62L365.98 265.1M417.11 294.62L365.98 324.13M365.98 265.1L314.86 235.59M365.98 265.1L314.86 294.62M314.86 235.59L263.74 206.07M314.86 235.59L263.74 265.1M263.74 206.07L212.61 235.59M1337.3 884.92L1286.18 855.41M1337.3 884.92L1286.18 914.44M1286.18 855.41L1235.06 825.9M1286.18 855.41L1235.06 884.92M1235.06 825.9L1183.94 796.38M1235.06 825.9L1183.94 855.41M1183.94 796.38L1132.82 766.86M1183.94 796.38L1132.82 825.89M1132.82 766.86L1081.7 737.35M1132.82 766.86L1081.7 796.38M1081.7 737.35L1030.57 707.84M1081.7 737.35L1030.58 766.86M1030.57 707.84L979.45 678.32M1030.57 707.84L979.46 737.35M979.45 678.32L928.33 648.8M979.45 678.32L928.33 707.83M928.33 648.8L877.21 619.29M928.33 648.8L877.21 678.32M877.21 619.29L826.08 589.77M877.21 619.29L826.09 648.8M826.08 589.77L774.96 560.26M826.08 589.77L774.96 619.29M774.96 560.26L723.84 530.74M774.96 560.26L723.84 589.77M723.84 530.74L672.72 501.23M723.84 530.74L672.72 560.26M672.72 501.23L621.59 471.71M672.72 501.23L621.6 530.74M621.59 471.71L570.47 442.2M621.59 471.71L570.47 501.22M570.47 442.2L519.35 412.68M570.47 442.2L519.35 471.71M519.35 412.68L468.22 383.16M519.35 412.68L468.23 442.19M468.22 383.16L417.1 353.65M468.22 383.16L417.1 412.68M417.1 353.65L365.98 324.13M417.1 353.65L365.98 383.16M365.98 324.13L314.86 294.62M365.98 324.13L314.86 353.65M314.86 294.62L263.74 265.1M314.86 294.62L263.74 324.13M263.74 265.1L212.61 235.59M263.74 265.1L212.62 294.62M212.61 235.59L161.5 265.1M1286.18 914.44L1235.06 884.92M1286.18 914.44L1235.06 943.96M1235.06 884.92L1183.94 855.41M1235.06 884.92L1183.94 914.44M1183.94 855.41L1132.82 825.89M1183.94 855.41L1132.82 884.93M1132.82 825.89L1081.7 796.38M1132.82 825.89L1081.69 855.41M1081.7 796.38L1030.58 766.86M1081.7 796.38L1030.57 825.89M1030.58 766.86L979.46 737.35M1030.58 766.86L979.45 796.38M979.46 737.35L928.33 707.83M979.46 737.35L928.33 766.87M928.33 707.83L877.21 678.32M928.33 707.83L877.21 737.35M877.21 678.32L826.09 648.8M877.21 678.32L826.08 707.83M826.09 648.8L774.96 619.29M826.09 648.8L774.96 678.32M774.96 619.29L723.84 589.77M774.96 619.29L723.84 648.8M723.84 589.77L672.72 560.26M723.84 589.77L672.72 619.29M672.72 560.26L621.6 530.74M672.72 560.26L621.6 589.77M621.6 530.74L570.47 501.22M621.6 530.74L570.48 560.26M570.47 501.22L519.35 471.71M570.47 501.22L519.35 530.74M519.35 471.71L468.23 442.19M519.35 471.71L468.23 501.23M468.23 442.19L417.1 412.68M468.23 442.19L417.11 471.71M417.1 412.68L365.98 383.16M417.1 412.68L365.98 442.19M365.98 383.16L314.86 353.65M365.98 383.16L314.86 412.68M314.86 353.65L263.74 324.13M314.86 353.65L263.74 383.16M263.74 324.13L212.62 294.62M263.74 324.13L212.62 353.64M212.62 294.62L161.5 265.1M212.62 294.62L161.5 324.13M161.5 265.1L110.38 294.62M1235.06 943.96L1183.94 914.44M1235.06 943.96L1183.94 973.47M1183.94 914.44L1132.82 884.93M1183.94 914.44L1132.82 943.95M1132.82 884.93L1081.69 855.41M1132.82 884.93L1081.7 914.44M1081.69 855.41L1030.57 825.89M1081.69 855.41L1030.58 884.92M1030.57 825.89L979.45 796.38M1030.57 825.89L979.45 855.41M979.45 796.38L928.33 766.87M979.45 796.38L928.33 825.9M928.33 766.87L877.21 737.35M928.33 766.87L877.21 796.38M877.21 737.35L826.08 707.83M877.21 737.35L826.09 766.86M826.08 707.83L774.96 678.32M826.08 707.83L774.96 737.35M774.96 678.32L723.84 648.8M774.96 678.32L723.84 707.83M723.84 648.8L672.72 619.29M723.84 648.8L672.72 678.32M672.72 619.29L621.6 589.77M672.72 619.29L621.59 648.8M621.6 589.77L570.48 560.26M621.6 589.77L570.47 619.29M570.48 560.26L519.35 530.74M570.48 560.26L519.35 589.77M519.35 530.74L468.23 501.23M519.35 530.74L468.23 560.26M468.23 501.23L417.11 471.71M468.23 501.23L417.11 530.74M417.11 471.71L365.98 442.19M417.11 471.71L365.98 501.23M365.98 442.19L314.86 412.68M365.98 442.19L314.86 471.71M314.86 412.68L263.74 383.16M314.86 412.68L263.74 442.19M263.74 383.16L212.62 353.64M263.74 383.16L212.61 412.68M212.62 353.64L161.5 324.13M212.62 353.64L161.49 383.16M161.5 324.13L110.38 294.62M161.5 324.13L110.37 353.65M110.38 294.62L59.25 324.13M1183.94 973.47L1132.82 943.95M1183.94 973.47L1132.82 1002.98M1132.82 943.95L1081.7 914.44M1132.82 943.95L1081.7 973.47M1081.7 914.44L1030.58 884.92M1081.7 914.44L1030.58 943.95M1030.58 884.92H1030.57M1030.57 884.92L979.45 855.41M1030.57 884.92L979.45 914.44M979.45 855.41L928.33 825.9M979.45 855.41L928.33 884.92M928.33 825.9L877.21 796.38M928.33 825.9L877.21 855.41M877.21 796.38L826.09 766.86M877.21 796.38L826.09 825.89M826.09 766.86L774.96 737.35M826.09 766.86L774.97 796.38M774.96 737.35L723.84 707.83M774.96 737.35L723.84 766.86M723.84 707.83L672.72 678.32M723.84 707.83L672.72 737.35M672.72 678.32L621.59 648.8M672.72 678.32L621.6 707.83M621.59 648.8L570.47 619.29M621.59 648.8L570.47 678.32M570.47 619.29L519.35 589.77M570.47 619.29L519.35 648.8M519.35 589.77L468.23 560.26M519.35 589.77L468.23 619.29M468.23 560.26L417.11 530.74M468.23 560.26L417.11 589.77M417.11 530.74L365.98 501.23M417.11 530.74L365.99 560.26M365.98 501.23L314.86 471.71M365.98 501.23L314.87 530.74M314.86 471.71L263.74 442.19M314.86 471.71L263.74 501.22M263.74 442.19L212.61 412.68M263.74 442.19L212.62 471.71M212.61 412.68L161.49 383.16M212.61 412.68L161.5 442.19M161.49 383.16L110.37 353.65M161.49 383.16L110.37 412.68M110.37 353.65L59.25 324.13M110.37 353.65L59.25 383.16M59.25 324.13L8.13 353.65M1132.82 1002.98L1081.7 973.47M1132.82 1002.98L1081.69 1032.5M1081.7 973.47L1030.58 943.95M1081.7 973.47L1030.57 1002.99M1030.58 943.95L979.45 914.44M1030.58 943.95L979.45 973.47M979.45 914.44L928.33 884.92M979.45 914.44L928.32 943.96M928.33 884.92L877.21 855.41M928.33 884.92L877.2 914.44M877.21 855.41L826.09 825.89M877.21 855.41L826.08 884.93M826.09 825.89L774.97 796.38M826.09 825.89L774.96 855.41M774.97 796.38L723.84 766.86M774.97 796.38L723.84 825.9M723.84 766.86L672.72 737.35M723.84 766.86L672.71 796.38M672.72 737.35L621.6 707.83M672.72 737.35L621.59 766.86M621.6 707.83L570.47 678.32M621.6 707.83L570.47 737.35M570.47 678.32L519.35 648.8M570.47 678.32L519.35 707.83M519.35 648.8L468.23 619.29M519.35 648.8L468.23 678.32M468.23 619.29L417.11 589.77M468.23 619.29L417.11 648.8M417.11 589.77L365.99 560.26M417.11 589.77L365.98 619.29M365.99 560.26L314.87 530.74M365.99 560.26L314.86 589.77M314.87 530.74L263.74 501.22M314.87 530.74L263.74 560.26M263.74 501.22L212.62 471.71M263.74 501.22L212.61 530.74M212.62 471.71L161.5 442.19M212.62 471.71L161.5 501.22M161.5 442.19L110.37 412.68M161.5 442.19L110.38 471.71M110.37 412.68L59.25 383.16M110.37 412.68L59.25 442.19M59.25 383.16L8.13 353.65M59.25 383.16L8.13 412.68M8.13 353.65L-42.99 383.16M1081.69 1032.5L1030.57 1002.99M1081.69 1032.5L1030.57 1062.02M1030.57 1002.99L979.45 973.47M1030.57 1002.99L979.45 1032.5M979.45 973.47L928.32 943.96M979.45 973.47L928.33 1002.99M928.32 943.96L877.2 914.44M928.32 943.96L877.2 973.47M877.2 914.44L826.08 884.93M877.2 914.44L826.08 943.96M826.08 884.93L774.96 855.41M826.08 884.93L774.96 914.44M774.96 855.41L723.84 825.9M774.96 855.41L723.84 884.93M723.84 825.9L672.71 796.38M723.84 825.9L672.72 855.41M672.71 796.38L621.59 766.86M672.71 796.38L621.59 825.89M621.59 766.86L570.47 737.35M621.59 766.86L570.47 796.38M570.47 737.35L519.35 707.83M570.47 737.35L519.35 766.87M519.35 707.83L468.23 678.32M519.35 707.83L468.22 737.35M468.23 678.32L417.11 648.8M468.23 678.32L417.11 707.84M417.11 648.8L365.98 619.29M417.11 648.8L365.98 678.32M365.98 619.29L314.86 589.77M365.98 619.29L314.86 648.8M314.86 589.77L263.74 560.26M314.86 589.77L263.74 619.29M263.74 560.26L212.61 530.74M263.74 560.26L212.62 589.77M212.61 530.74L161.5 501.22M212.61 530.74L161.49 560.25M161.5 501.22L110.38 471.71M161.5 501.22L110.37 530.74M110.38 471.71L59.25 442.19M110.38 471.71L59.25 501.23M59.25 442.19L8.13 412.68M59.25 442.19L8.12 471.71M8.13 412.68L-42.99 383.16M8.13 412.68L-43 442.19M-42.99 383.16L-94.12 412.68L-43 442.19M1030.57 1062.02L979.45 1032.5M1030.57 1062.02L979.45 1091.53M979.45 1032.5L928.33 1002.99M979.45 1032.5L928.33 1062.02M928.33 1002.99L877.2 973.47M928.33 1002.99L877.21 1032.5M877.2 973.47L826.08 943.96M877.2 973.47L826.08 1002.99M826.08 943.96L774.96 914.44M826.08 943.96L774.96 973.47M774.96 914.44L723.84 884.93M774.96 914.44L723.84 943.96M723.84 884.93L672.72 855.41M723.84 884.93L672.72 914.44M672.72 855.41L621.59 825.89M672.72 855.41L621.6 884.93M621.59 825.89L570.47 796.38M621.59 825.89L570.47 855.41M570.47 796.38L519.35 766.87M570.47 796.38L519.35 825.9M519.35 766.87L468.22 737.35M519.35 766.87L468.23 796.38M468.22 737.35L417.11 707.84M468.22 737.35L417.1 766.86M417.11 707.84L365.98 678.32M417.11 707.84L365.98 737.35M365.98 678.32L314.86 648.8M365.98 678.32L314.86 707.84M314.86 648.8L263.74 619.29M314.86 648.8L263.74 678.32M263.74 619.29L212.62 589.77M263.74 619.29L212.62 648.8M212.62 589.77L161.49 560.25M212.62 589.77L161.5 619.29M161.49 560.25L110.37 530.74M161.49 560.25L110.37 589.77M110.37 530.74L59.25 501.23M110.37 530.74L59.25 560.26M59.25 501.23L8.12 471.71M59.25 501.23L8.13 530.74M8.12 471.71L-43 442.19M8.12 471.71L-43 501.22M-43 442.19L-94.12 471.71M-128.07 452.11L-94.12 471.71M-94.12 471.71L-43 501.22M-94.12 471.71L-145.24 501.22M-43 501.22L8.13 530.74M-43 501.22L-94.12 530.74M8.13 530.74L59.25 560.26M8.13 530.74L-42.99 560.26M59.25 560.26L110.37 589.77M59.25 560.26L8.13 589.77M110.37 589.77L161.5 619.29M110.37 589.77L59.25 619.28M161.5 619.29L212.61 648.8M161.5 619.29L110.38 648.8M212.61 648.8H212.62M212.61 648.8L161.5 678.32M212.62 648.8L263.74 678.32M263.74 678.32L314.86 707.84M263.74 678.32L212.62 707.83M314.86 707.84L365.98 737.35M314.86 707.84L263.74 737.35M365.98 737.35L417.1 766.86M365.98 737.35L314.86 766.86M417.1 766.86L468.23 796.38M417.1 766.86L365.98 796.38M468.23 796.38L519.35 825.9M468.23 796.38L417.11 825.89M519.35 825.9L570.47 855.41M519.35 825.9L468.23 855.41M570.47 855.41L621.6 884.93M570.47 855.41L519.35 884.92M621.6 884.93L672.72 914.44M621.6 884.93L570.48 914.44M672.72 914.44L723.84 943.96M672.72 914.44L621.6 943.96M723.84 943.96L774.96 973.47M723.84 943.96L672.72 973.47M774.96 973.47L826.08 1002.99M774.96 973.47L723.84 1002.98M826.08 1002.99L877.21 1032.5M826.08 1002.99L774.96 1032.5M877.21 1032.5L928.33 1062.02M877.21 1032.5L826.09 1062.02M928.33 1062.02L979.45 1091.53M928.33 1062.02L877.21 1091.53M979.45 1091.53L928.33 1121.05M-153.63 496.38L-145.24 501.22M-145.24 501.22L-94.12 530.74M-94.12 530.74L-42.99 560.26M-94.12 530.74L-145.24 560.25M-42.99 560.26L8.13 589.77M-42.99 560.26L-94.11 589.77M8.13 589.77L59.25 619.28M8.13 589.77L-42.99 619.28M59.25 619.28L110.38 648.8M59.25 619.28L8.13 648.8M110.38 648.8L161.5 678.32M110.38 648.8L59.26 678.32M161.5 678.32L212.62 707.83M161.5 678.32L110.38 707.83M212.62 707.83L263.74 737.35M212.62 707.83L161.5 737.35M263.74 737.35L314.86 766.86M263.74 737.35L212.62 766.86M314.86 766.86L365.98 796.38M314.86 766.86L263.74 796.38M365.98 796.38L417.11 825.89M365.98 796.38L314.86 825.89M417.11 825.89L468.23 855.41M417.11 825.89L365.99 855.41M468.23 855.41L519.35 884.92M468.23 855.41L417.11 884.92M519.35 884.92L570.48 914.44M519.35 884.92L468.23 914.44M570.48 914.44L621.6 943.96M570.48 914.44L519.36 943.96M621.6 943.96L672.72 973.47M621.6 943.96L570.48 973.47M672.72 973.47L723.84 1002.98M672.72 973.47L621.6 1002.99M723.84 1002.98L774.96 1032.5M723.84 1002.98L672.72 1032.5M774.96 1032.5L826.09 1062.02M774.96 1032.5L723.84 1062.02M826.09 1062.02L877.21 1091.53M826.09 1062.02L774.96 1091.53M877.21 1091.53L928.33 1121.05M877.21 1091.53L826.08 1121.05M928.33 1121.05L877.2 1150.56M-179.19 540.65L-145.24 560.25M-145.24 560.25L-94.11 589.77M-145.24 560.25L-196.37 589.77M-94.11 589.77L-42.99 619.28M-94.11 589.77L-145.24 619.29M-42.99 619.28L8.13 648.8M-42.99 619.28L-94.12 648.8M8.13 648.8L59.26 678.32M8.13 648.8L-43 678.32M59.26 678.32L110.38 707.83M59.26 678.32L8.13 707.84M110.38 707.83L161.5 737.35M110.38 707.83L59.25 737.35M161.5 737.35L212.62 766.86M161.5 737.35L110.37 766.86M212.62 766.86L263.74 796.38M212.62 766.86L161.5 796.38M263.74 796.38L314.86 825.89M263.74 796.38L212.62 825.9M314.86 825.89L365.99 855.41M314.86 825.89L263.74 855.41M365.99 855.41L417.1 884.92M365.99 855.41L314.86 884.93M417.1 884.92H417.11M417.1 884.92L365.98 914.44M417.11 884.92L468.23 914.44M468.23 914.44L519.36 943.96M468.23 914.44L417.1 943.95M519.36 943.96L570.48 973.47M519.36 943.96L468.23 973.47M570.48 973.47L621.6 1002.99M570.48 973.47L519.35 1002.99M621.6 1002.99L672.72 1032.5M621.6 1002.99L570.47 1032.5M672.72 1032.5L723.84 1062.02M672.72 1032.5L621.59 1062.02M723.84 1062.02L774.96 1091.53M723.84 1062.02L672.72 1091.53M774.96 1091.53L826.08 1121.05M774.96 1091.53L723.84 1121.05M826.08 1121.05L877.2 1150.56M826.08 1121.05L774.96 1150.56M877.2 1150.56L826.08 1180.08M-204.75 584.93L-196.37 589.77M-196.37 589.77L-145.24 619.29M-196.37 589.77L-204.75 594.61M-145.24 619.29L-94.12 648.8M-145.24 619.29L-179.19 638.89M-94.12 648.8L-43 678.32M-94.12 648.8L-145.24 678.32M-43 678.32L8.13 707.84M-43 678.32L-94.12 707.83M8.13 707.84L59.25 737.35M8.13 707.84L-42.99 737.35M59.25 737.35L110.37 766.86M59.25 737.35L8.13 766.86M110.37 766.86L161.5 796.38M110.37 766.86L59.25 796.38M161.5 796.38L212.62 825.9M161.5 796.38L110.38 825.9M212.62 825.9L263.74 855.41M212.62 825.9L161.5 855.41M263.74 855.41L314.86 884.93M263.74 855.41L212.62 884.92M314.86 884.93L365.98 914.44M314.86 884.93L263.74 914.44M365.98 914.44L417.1 943.95M365.98 914.44L314.86 943.95M417.1 943.95L468.23 973.47M417.1 943.95L365.98 973.47M468.23 973.47L519.35 1002.99M468.23 973.47L417.11 1002.99M519.35 1002.99L570.47 1032.5M519.35 1002.99L468.23 1032.5M570.47 1032.5L621.59 1062.02M570.47 1032.5L519.35 1062.02M621.59 1062.02L672.72 1091.53M621.59 1062.02L570.47 1091.53M672.72 1091.53L723.84 1121.05M672.72 1091.53L621.6 1121.05M723.84 1121.05L774.96 1150.56M723.84 1121.05L672.72 1150.56M774.96 1150.56L826.08 1180.08M774.96 1150.56L723.84 1180.08M826.08 1180.08L774.96 1209.59M774.96 1209.59L723.84 1180.08M774.96 1209.59L723.84 1239.11L672.72 1209.59M723.84 1180.08L672.72 1150.56M723.84 1180.08L672.72 1209.59M672.72 1150.56L621.6 1121.05M672.72 1150.56L621.6 1180.08M621.6 1121.05L570.47 1091.53M621.6 1121.05L570.48 1150.56M570.47 1091.53L519.35 1062.02M570.47 1091.53L519.35 1121.05M519.35 1062.02L468.23 1032.5M519.35 1062.02L468.23 1091.53M468.23 1032.5L417.11 1002.99M468.23 1032.5L417.11 1062.02M417.11 1002.99L365.98 973.47M417.11 1002.99L365.99 1032.5M365.98 973.47L314.86 943.95M365.98 973.47L314.86 1002.98M314.86 943.95L263.74 914.44M314.86 943.95L263.74 973.47M263.74 914.44L212.62 884.92M263.74 914.44L212.62 943.96M212.62 884.92L161.5 855.41M212.62 884.92L161.5 914.44M161.5 855.41L110.38 825.9M161.5 855.41L110.38 884.92M110.38 825.9L59.25 796.38M110.38 825.9L59.26 855.41M59.25 796.38L8.13 766.86M59.25 796.38L8.13 825.89M8.13 766.86L-42.99 737.35M8.13 766.86L-42.99 796.38M-42.99 737.35L-94.12 707.83M-42.99 737.35L-94.11 766.86L-42.99 796.38M-94.12 707.83L-145.24 678.32M-94.12 707.83L-128.07 727.43M-145.24 678.32L-153.63 683.16M672.72 1209.59L621.6 1180.08M621.6 1180.08L570.48 1150.56M570.48 1150.56L519.35 1121.05M519.35 1121.05L468.23 1091.53M468.23 1091.53L417.11 1062.02M417.11 1062.02L365.99 1032.5M365.99 1032.5L314.86 1002.98M314.86 1002.98L263.74 973.47M263.74 973.47L212.62 943.96M212.62 943.96L161.5 914.44M161.5 914.44L110.38 884.92M110.38 884.92H110.37L59.26 855.41M59.26 855.41L8.13 825.89M8.13 825.89L-42.99 796.38" stroke="url(#paint1_linear_330_436)" stroke-opacity="0.8" stroke-miterlimit="10"/>
<path d="M1235.32 529.23L1183.94 558.89L1132.56 529.23L1183.94 499.56L1235.32 529.23Z" fill="#FAFAFB" stroke="#E3E5E8" stroke-width="2" stroke-linecap="round" stroke-linejoin="round"/>
<path d="M1132.56 529.23V588.56L1183.94 618.22V558.9L1132.56 529.23Z" fill="#FAFAFB" stroke="#E3E5E8" stroke-width="2" stroke-linecap="round" stroke-linejoin="round"/>
<path d="M1235.32 529.23V588.56L1183.94 618.22V558.9L1235.32 529.23Z" fill="#FAFAFB" stroke="#E3E5E8" stroke-width="2" stroke-linecap="round" stroke-linejoin="round"/>
</g>
<defs>
<linearGradient id="paint0_linear_330_436" x1="924.5" y1="0" x2="924.5" y2="918" gradientUnits="userSpaceOnUse">
<stop stop-color="#1E3A8A" stop-opacity="0.05"/>
<stop offset="0.620615" stop-color="#FF7A2A" stop-opacity="0.05"/>
<stop offset="0.996634" stop-color="#3E7EFF" stop-opacity="0.05"/>
</linearGradient>
<linearGradient id="paint1_linear_330_436" x1="719.65" y1="890.846" x2="719.65" y2="49.5069" gradientUnits="userSpaceOnUse">
<stop stop-color="#D7DADF" stop-opacity="0"/>
<stop offset="0.45622" stop-color="#D7DADF" stop-opacity="0.9"/>
<stop offset="1" stop-color="#D7DADF" stop-opacity="0"/>
</linearGradient>
<clipPath id="clip0_330_436">
<rect width="1849" height="918" fill="white" transform="translate(-205 -60)"/>
</clipPath>
</defs>
</svg>
