<svg width="50" height="50" viewBox="0 0 50 50" fill="none" xmlns="http://www.w3.org/2000/svg">
<path d="M23.5512 18.16C25.9858 18.16 27.9594 16.1864 27.9594 13.7518C27.9594 11.3173 25.9858 9.34369 23.5512 9.34369C21.1167 9.34369 19.1431 11.3173 19.1431 13.7518C19.1431 16.1864 21.1167 18.16 23.5512 18.16Z" fill="#00AAFF"/>
<path d="M38.245 18.1598H35.3062C35.0123 18.1598 34.8164 18.3557 34.8164 18.6496V38.2414C34.8164 38.5353 35.0123 38.7312 35.3062 38.7312H38.245C38.5389 38.7312 38.7348 38.5353 38.7348 38.2414V18.6496C38.7348 18.3557 38.5389 18.1598 38.245 18.1598Z" fill="#00AAFF"/>
<path d="M32.3675 20.6086H29.4287C29.1348 20.6086 28.939 20.8045 28.939 21.0984V38.2412C28.939 38.5351 29.1348 38.731 29.4287 38.731H32.3675C32.6614 38.731 32.8573 38.5351 32.8573 38.2412V21.0984C32.8573 20.8045 32.6614 20.6086 32.3675 20.6086Z" fill="#00AAFF"/>
<path d="M26.4901 23.5479H23.5513C23.2574 23.5479 23.0615 23.7438 23.0615 24.0376V38.2417C23.0615 38.5356 23.2574 38.7315 23.5513 38.7315H26.4901C26.7839 38.7315 26.9799 38.5356 26.9799 38.2417V24.0376C26.9799 23.7438 26.7839 23.5479 26.4901 23.5479Z" fill="#00AAFF"/>
<path d="M20.6122 26.4872H17.6734C17.3795 26.4872 17.1836 26.6831 17.1836 26.977V38.2423C17.1836 38.5361 17.3795 38.732 17.6734 38.732H20.6122C20.906 38.732 21.1019 38.5361 21.1019 38.2423V26.977C21.1019 26.6831 20.906 26.4872 20.6122 26.4872Z" fill="#00AAFF"/>
<path d="M14.7352 29.4255H11.7964C11.5026 29.4255 11.3066 29.6215 11.3066 29.9153V38.2418C11.3066 38.5357 11.5026 38.7316 11.7964 38.7316H14.7352C15.0291 38.7316 15.225 38.5357 15.225 38.2418V29.9153C15.225 29.6215 15.0291 29.4255 14.7352 29.4255Z" fill="#00AAFF"/>
<path d="M24.9225 14.4378C24.7756 13.9481 24.3347 13.5072 23.747 13.3113C23.4041 13.1644 23.2083 12.9685 23.1593 12.8215C23.1593 12.7726 23.1103 12.6746 23.2572 12.5277C23.5021 12.2338 24.0409 12.6746 24.0899 12.6746C24.2858 12.8215 24.6286 12.8215 24.7756 12.5766C24.9225 12.3807 24.9225 12.0378 24.6776 11.8909C24.5307 11.793 24.2858 11.646 24.0409 11.5481V11.3032C24.0409 11.0093 23.845 10.8134 23.5511 10.8134C23.2572 10.8134 23.0613 11.0093 23.0613 11.3032V11.4991C22.8654 11.5481 22.6695 11.695 22.5225 11.8909C22.2286 12.2338 22.1307 12.6746 22.2286 13.0664C22.3756 13.5562 22.8164 13.997 23.4041 14.1929C23.747 14.3399 23.9429 14.5358 23.9919 14.6828C23.9919 14.7317 24.0409 14.8297 23.894 14.9766C23.649 15.2705 23.1103 14.8297 23.0613 14.8297C22.8654 14.6828 22.5225 14.6828 22.3756 14.9277C22.2286 15.1235 22.2286 15.4664 22.4735 15.6134C22.6205 15.7113 22.8654 15.8583 23.1103 15.9562V16.2501C23.1103 16.544 23.3062 16.7399 23.6001 16.7399C23.894 16.7399 24.0899 16.544 24.0899 16.2501V16.0542C24.2858 16.0052 24.4817 15.8583 24.6286 15.6623C24.8735 15.2705 25.0205 14.8297 24.9225 14.4378Z" fill="#00008E"/>
<path d="M39.2252 37.7521H10.8171C9.98442 37.7521 9.34766 38.3888 9.34766 39.2215C9.34766 40.0541 9.98442 40.6909 10.8171 40.6909H39.2252C40.0578 40.6909 40.6946 40.0541 40.6946 39.2215C40.6946 38.3888 40.0578 37.7521 39.2252 37.7521Z" fill="#00008E"/>
<path d="M36.7759 12.283H33.3474C33.0535 12.283 32.8576 12.4789 32.8576 12.7728C32.8576 13.0667 33.0535 13.2626 33.3474 13.2626H35.6004L30.7025 18.1605H27.9597C27.8127 18.1605 27.7147 18.2095 27.6168 18.3074L24.825 21.0993H22.0821C21.9352 21.0993 21.8372 21.1483 21.7392 21.2462L18.9474 24.0381H16.2046C16.0577 24.0381 15.9597 24.087 15.8617 24.185L13.0699 26.9768H11.7964C11.5026 26.9768 11.3066 27.1727 11.3066 27.4666C11.3066 27.7605 11.5026 27.9564 11.7964 27.9564H13.2658C13.4128 27.9564 13.5107 27.9074 13.6087 27.8095L16.4005 25.0176H19.1434C19.2903 25.0176 19.3883 24.9687 19.4862 24.8707L22.278 22.0789H25.0209C25.1678 22.0789 25.2658 22.0299 25.3638 21.9319L28.1556 19.1401H30.8984C31.0453 19.1401 31.1433 19.0912 31.2413 18.9932L36.2862 13.9483V16.2013C36.2862 16.4952 36.4821 16.6912 36.7759 16.6912C37.0698 16.6912 37.2658 16.4952 37.2658 16.2013V12.7728C37.2658 12.4789 37.0209 12.283 36.7759 12.283Z" fill="#00008E"/>
<path d="M17.0864 13.948L13.6579 9.53988C13.4619 9.29497 13.0701 9.29497 12.8742 9.53988L9.44564 13.948C9.34768 14.095 9.2987 14.2909 9.39666 14.4868C9.49462 14.6338 9.64152 14.7807 9.83745 14.7807H11.7966V25.5562C11.7966 25.7521 11.8946 25.948 12.0905 25.997C12.1395 26.046 12.2374 26.046 12.2864 26.046C12.3844 26.046 12.5313 25.997 12.6293 25.899L14.5885 24.0868C14.6864 23.9888 14.7354 23.8419 14.7354 23.744V14.7317H16.6946C16.8905 14.7317 17.0374 14.6338 17.1354 14.4378C17.2334 14.2909 17.1844 14.095 17.0864 13.948Z" fill="#00AAFF"/>
</svg>
