<svg width="24" height="60" viewBox="0 0 24 60" fill="none" xmlns="http://www.w3.org/2000/svg">
<g clip-path="url(#clip0_332_519)">
<path d="M24 48H0L0 12H24L24 48Z" fill="url(#paint0_linear_332_519)" fill-opacity="0.5"/>
<path d="M12 36C18.6274 36 24 41.3726 24 48C24 54.6274 18.6274 60 12 60C5.37258 60 0 54.6274 0 48C0 41.3726 5.37258 36 12 36Z" fill="#F0F0F0"/>
<path d="M12 0C18.6274 0 24 5.37258 24 12C24 18.6274 18.6274 24 12 24C5.37258 24 0 18.6274 0 12C0 5.37258 5.37258 0 12 0Z" fill="#F3F3F3"/>
</g>
<defs>
<linearGradient id="paint0_linear_332_519" x1="0" y1="30" x2="24" y2="30" gradientUnits="userSpaceOnUse">
<stop stop-color="#E7E7E7"/>
<stop offset="1" stop-color="#A4A4A4"/>
</linearGradient>
<clipPath id="clip0_332_519">
<rect width="24" height="60" fill="white" transform="matrix(1 0 0 -1 0 60)"/>
</clipPath>
</defs>
</svg>
