<svg width="159" height="50" viewBox="0 0 159 50" fill="none" xmlns="http://www.w3.org/2000/svg">
<path d="M62.1042 22.1455L73.5381 35.0281H67.2881L58.8897 25.3601L56.847 27.4353V35.0281H51.7607V11.3057H56.847V20.9086L66.3848 11.3057H72.8708L62.1042 22.1455Z" fill="white"/>
<path d="M92.2129 18.4349V35.0284H88.2253L87.7614 33.2543C87.1145 34.123 86.3393 34.7028 85.4339 34.9958C84.5327 35.2827 83.5907 35.4271 82.61 35.4271C81.426 35.4271 80.3395 35.1993 79.3467 34.7435C78.3539 34.2878 77.4871 33.6652 76.7507 32.8718C76.0182 32.0804 75.4445 31.1547 75.0335 30.0967C74.6205 29.0347 74.415 27.8994 74.415 26.695C74.415 25.4906 74.6205 24.3594 75.0335 23.3014C75.4445 22.2435 76.0182 21.3198 76.7507 20.5264C77.4871 19.7349 78.3539 19.1104 79.3467 18.6546C80.3395 18.1948 81.426 17.9629 82.61 17.9629C83.6782 17.9629 84.6568 18.1318 85.5479 18.4674C86.4431 18.8052 87.1796 19.3382 87.7614 20.0706L88.2253 18.4349H92.2129ZM87.5905 26.7683C87.5905 25.8954 87.4725 25.163 87.2406 24.571C87.0066 23.981 86.6953 23.5029 86.3047 23.1387C85.9141 22.7704 85.4543 22.5019 84.9294 22.333C84.4086 22.1662 83.847 22.0807 83.2448 22.0807C82.6426 22.0807 82.077 22.2028 81.5521 22.447C81.0313 22.6911 80.5694 23.0227 80.1686 23.4398C79.7658 23.8528 79.4525 24.3431 79.2246 24.9128C79.0008 25.4784 78.891 26.0724 78.891 26.695C78.891 27.3461 79.0008 27.9523 79.2246 28.5098C79.4525 29.0632 79.7658 29.5474 80.1686 29.9584C80.5694 30.3714 81.0313 30.703 81.5521 30.9512C82.077 31.1953 82.6426 31.3174 83.2448 31.3174C84.4492 31.3174 85.4685 30.9431 86.3047 30.1944C87.1389 29.4457 87.5681 28.3043 87.5905 26.7683Z" fill="white"/>
<path d="M94.6479 10.5732H99.2699V35.0281H94.6479V10.5732Z" fill="white"/>
<path d="M106.464 35.0281H101.842V18.4346H106.464V35.0281ZM104.153 16.1559C103.437 16.1559 102.834 15.9118 102.346 15.4235C101.858 14.9352 101.614 14.333 101.614 13.6169C101.614 12.9007 101.858 12.2944 102.346 11.7939C102.834 11.2894 103.437 11.0371 104.153 11.0371C104.869 11.0371 105.471 11.2894 105.959 11.7939C106.447 12.2944 106.691 12.9007 106.691 13.6169C106.691 14.333 106.447 14.9352 105.959 15.4235C105.471 15.9118 104.869 16.1559 104.153 16.1559Z" fill="white"/>
<path d="M118.841 17.9627C120 17.9627 121.083 18.1947 122.088 18.6545C123.091 19.1102 123.96 19.7348 124.692 20.5262C125.428 21.3197 126.004 22.2434 126.417 23.3013C126.828 24.3592 127.036 25.4904 127.036 26.6949C127.036 27.8993 126.828 29.0346 126.417 30.0966C126.004 31.1545 125.428 32.0802 124.692 32.8716C123.96 33.6651 123.091 34.2877 122.088 34.7434C121.083 35.1991 120 35.427 118.841 35.427C117.858 35.427 116.914 35.2561 116.009 34.9143C115.107 34.5684 114.399 34.1249 113.885 33.5878L113.217 35.0282H109.27V10.606H113.885V19.7694C115.158 18.565 116.81 17.9627 118.841 17.9627ZM118.206 31.3173C118.808 31.3173 119.37 31.1952 119.891 30.9511C120.415 30.7028 120.879 30.3712 121.282 29.9582C121.683 29.5472 121.994 29.063 122.218 28.5096C122.44 27.9522 122.552 27.3459 122.552 26.6949C122.552 26.0723 122.44 25.4782 122.218 24.9126C121.994 24.343 121.683 23.8527 121.282 23.4396C120.879 23.0226 120.415 22.6909 119.891 22.4468C119.37 22.2027 118.808 22.0806 118.206 22.0806C117.604 22.0806 117.038 22.166 116.513 22.3329C115.992 22.5017 115.537 22.7703 115.146 23.1385C114.755 23.5027 114.446 23.9808 114.218 24.5708C113.995 25.1629 113.885 25.8953 113.885 26.7681C113.885 27.5453 113.995 28.2167 114.218 28.7863C114.446 29.356 114.755 29.826 115.146 30.1942C115.537 30.5645 115.992 30.8432 116.513 31.0324C117.038 31.2237 117.604 31.3173 118.206 31.3173Z" fill="white"/>
<path d="M132.89 20.7459C133.111 20.3879 133.366 20.0501 133.655 19.7287C133.948 19.4032 134.293 19.1143 134.696 18.8579C135.097 18.5975 135.553 18.392 136.063 18.2394C136.578 18.0828 137.158 18.0034 137.805 18.0034C138.564 18.0034 139.445 18.1377 140.45 18.4022L140.019 22.5119C139.774 22.4692 139.526 22.4142 139.278 22.3491C139.077 22.3064 138.855 22.2678 138.611 22.2352C138.367 22.1986 138.143 22.1782 137.943 22.1782C137.227 22.1782 136.562 22.28 135.95 22.4793C135.335 22.6808 134.806 22.9595 134.363 23.3176C133.917 23.6756 133.559 24.1069 133.288 24.6115C133.022 25.112 132.89 25.6511 132.89 26.231V35.0282H128.275V18.4347H132.458L132.89 20.7459Z" fill="white"/>
<path d="M149.65 17.9629C150.897 17.9629 152.034 18.2152 153.06 18.7197C154.089 19.2202 154.972 19.8753 155.704 20.6891C156.441 21.5029 157.011 22.4429 157.413 23.5049C157.814 24.5628 158.016 25.6513 158.016 26.7683C158.016 27.4356 157.926 28.1497 157.747 28.9086H145.906C146.35 29.6634 146.984 30.3042 147.81 30.8291C148.634 31.3561 149.528 31.6185 150.488 31.6185C151.448 31.6185 152.288 31.5412 153.011 31.3825C153.737 31.2259 154.423 31.0244 155.07 30.7803L156.608 33.6205C155.782 34.2024 154.842 34.6499 153.784 34.9633C152.726 35.2725 151.595 35.4271 150.39 35.4271C149.072 35.4271 147.843 35.1993 146.704 34.7435C145.568 34.2878 144.576 33.6693 143.725 32.8881C142.879 32.1068 142.207 31.1831 141.715 30.113C141.227 29.0388 140.983 27.8994 140.983 26.695C140.983 25.513 141.204 24.3919 141.65 23.334C142.1 22.2761 142.72 21.3524 143.514 20.5589C144.305 19.7675 145.225 19.1388 146.272 18.6709C147.318 18.1989 148.445 17.9629 149.65 17.9629ZM153.434 25.3278C153.161 24.3675 152.681 23.5863 151.993 22.9841C151.304 22.3818 150.522 22.0807 149.65 22.0807C148.759 22.0807 147.951 22.3818 147.225 22.9841C146.502 23.5863 146.006 24.3675 145.735 25.3278H153.434Z" fill="white"/>
<path d="M128.055 45.8998C127.978 46.1561 127.895 46.4043 127.803 46.6485C127.716 46.8885 127.626 47.1164 127.535 47.3321C127.441 47.5497 127.347 47.7512 127.25 47.9343C127.156 48.1194 127.071 48.2801 126.989 48.4144C126.918 48.388 126.853 48.3717 126.794 48.3656C126.733 48.3554 126.676 48.3493 126.623 48.3493C126.546 48.3493 126.46 48.3656 126.363 48.3981C126.33 48.4042 126.265 48.4185 126.167 48.4388C126.074 48.4551 125.964 48.4755 125.834 48.4958C125.708 48.5182 125.573 48.5426 125.427 48.569C125.284 48.5955 125.144 48.6199 125.004 48.6423C124.867 48.6687 124.743 48.6911 124.629 48.7074C124.515 48.7277 124.428 48.744 124.369 48.7562C124.031 48.8315 123.657 48.864 123.246 48.8539C122.214 48.8539 121.262 48.6423 120.389 48.2191C119.917 47.9912 119.498 47.7145 119.136 47.389C118.778 47.0594 118.465 46.6871 118.2 46.2741C117.712 45.4827 117.468 44.5794 117.468 43.5641C117.468 43.0169 117.527 42.5103 117.647 42.0423C117.771 41.5703 117.96 41.1207 118.217 40.6914C118.461 40.2906 118.764 39.9264 119.128 39.6009C119.49 39.2754 119.903 38.9865 120.365 38.7301C120.821 38.4819 121.301 38.3049 121.805 38.2012C122.314 38.0933 122.855 38.0364 123.425 38.0303C123.875 38.0303 124.332 38.071 124.8 38.1523C125.266 38.2337 125.712 38.3477 126.135 38.4941C126.302 38.5491 126.456 38.5959 126.599 38.6325C126.739 38.6711 126.829 38.6895 126.867 38.6895C127.034 38.6895 127.132 38.6549 127.16 38.5837H127.445L127.6 41.0495H127.225C127.03 40.5124 126.755 40.0607 126.403 39.6904C126.056 39.3222 125.638 39.0313 125.15 38.8197C124.894 38.7179 124.631 38.6406 124.361 38.5918C124.088 38.543 123.803 38.5186 123.506 38.5186C121.671 38.5186 120.385 39.2713 119.649 40.7728C119.47 41.1309 119.332 41.5134 119.234 41.9203C119.14 42.3272 119.096 42.7625 119.096 43.2223C119.096 43.9507 119.209 44.6139 119.437 45.2162C119.669 45.8184 120.011 46.3758 120.463 46.8845C120.906 47.3788 121.407 47.7451 121.96 47.9831C122.518 48.2232 123.099 48.3452 123.702 48.3493C125.459 48.3493 126.788 47.5335 127.689 45.8998H128.055Z" fill="#A8A9AD"/>
<path d="M134.965 45.7292C134.965 45.2633 134.896 44.8218 134.762 44.4027C134.631 43.9795 134.452 43.6113 134.224 43.2959C134.001 42.9826 133.738 42.7323 133.435 42.5472C133.136 42.3641 132.813 42.2705 132.467 42.2705C132.206 42.2705 131.95 42.3397 131.702 42.474C131.452 42.6042 131.232 42.7873 131.043 43.0192C130.852 43.2471 130.697 43.5136 130.579 43.8167C130.459 44.1158 130.4 44.4352 130.4 44.777C130.4 45.4403 130.51 46.0283 130.734 46.543C130.955 47.0597 131.271 47.4829 131.677 47.8125C131.867 47.959 132.07 48.077 132.288 48.1625C132.503 48.2438 132.715 48.2845 132.922 48.2845C133.177 48.2845 133.427 48.2276 133.671 48.1136C133.915 47.9997 134.131 47.8349 134.322 47.6172C134.511 47.3954 134.666 47.1269 134.786 46.8115C134.904 46.4982 134.965 46.1361 134.965 45.7292ZM136.275 45.3141C136.275 45.8085 136.179 46.2704 135.99 46.6976C135.799 47.1208 135.543 47.487 135.217 47.7962C134.892 48.1055 134.517 48.3496 134.094 48.5287C133.671 48.7077 133.219 48.7972 132.743 48.7972C132.044 48.7972 131.427 48.6507 130.896 48.3578C130.369 48.0648 129.936 47.6416 129.594 47.0882C129.442 46.8502 129.326 46.5755 129.244 46.2663C129.163 45.957 129.118 45.6539 129.114 45.3548C129.114 44.834 129.206 44.3579 129.391 43.9225C129.58 43.4892 129.838 43.1169 130.164 42.8076C130.489 42.4943 130.868 42.2502 131.303 42.0752C131.736 41.8962 132.2 41.8066 132.695 41.8066C133.209 41.8066 133.679 41.886 134.102 42.0426C134.526 42.2013 134.908 42.4495 135.25 42.7913C135.933 43.4587 136.275 44.301 136.275 45.3141Z" fill="#A8A9AD"/>
<path d="M144.062 45.9893C144.062 46.4125 143.975 46.801 143.802 47.153C143.627 47.507 143.389 47.8102 143.086 48.0645C142.781 48.3147 142.423 48.508 142.012 48.6423C141.605 48.7827 141.161 48.8539 140.685 48.8539C140.494 48.8539 140.248 48.8213 139.945 48.7562C139.64 48.6952 139.318 48.6199 138.977 48.5283C138.808 48.4856 138.675 48.4551 138.578 48.4388C138.484 48.4185 138.419 48.4063 138.383 48.4063C138.273 48.4063 138.173 48.4632 138.081 48.5772H137.772L137.422 45.9974H137.813C137.894 46.3453 138.018 46.6627 138.187 46.9496C138.36 47.2324 138.566 47.4745 138.806 47.6739C139.05 47.8753 139.318 48.0319 139.611 48.1459C139.904 48.2598 140.215 48.3168 140.547 48.3168C140.856 48.3168 141.143 48.272 141.41 48.1784C141.68 48.0808 141.916 47.9485 142.118 47.7796C142.323 47.6067 142.484 47.4053 142.598 47.1774C142.716 46.9455 142.777 46.6891 142.777 46.4125C142.777 46.148 142.691 45.8794 142.524 45.6068C142.356 45.3362 142.126 45.0676 141.833 44.8011C141.723 44.7035 141.526 44.5631 141.239 44.3779C140.956 44.1948 140.606 43.967 140.189 43.6943C139.782 43.4299 139.426 43.1776 139.123 42.9375C138.818 42.6995 138.572 42.5123 138.383 42.376C138.22 42.2458 138.086 42.1034 137.984 41.9447C137.88 41.7819 137.797 41.6151 137.732 41.4401C137.666 41.2611 137.618 41.0881 137.585 40.9193C137.553 40.7463 137.522 40.5856 137.496 40.4391C137.496 40.1299 137.565 39.8328 137.707 39.5439C137.848 39.251 138.045 38.9946 138.301 38.7708C138.562 38.5491 138.873 38.37 139.237 38.2337C139.599 38.0994 140.006 38.0303 140.458 38.0303C140.722 38.0303 140.997 38.0547 141.279 38.1035C141.566 38.1523 141.851 38.2297 142.134 38.3314C142.248 38.3639 142.356 38.3924 142.459 38.4128C142.561 38.429 142.64 38.4372 142.695 38.4372C142.797 38.4372 142.891 38.3843 142.972 38.2744H143.297L143.566 40.4229H143.232C143.118 40.1421 142.968 39.8817 142.785 39.6416C142.606 39.4036 142.398 39.2001 142.166 39.0313C141.939 38.8644 141.69 38.7342 141.426 38.6406C141.159 38.5491 140.885 38.5023 140.604 38.5023C140.344 38.5023 140.102 38.5389 139.88 38.6081C139.662 38.6793 139.473 38.779 139.31 38.9092C139.152 39.0394 139.027 39.2001 138.936 39.3893C138.842 39.5745 138.798 39.7861 138.798 40.0241C138.798 40.2743 138.873 40.5287 139.025 40.7891C139.182 41.0454 139.418 41.3058 139.733 41.5703C139.809 41.6354 139.988 41.7616 140.27 41.9447C140.551 42.1298 140.915 42.3597 141.361 42.6364C141.55 42.7564 141.735 42.8785 141.914 43.0026C142.093 43.1288 142.26 43.2508 142.419 43.3688C142.581 43.4889 142.728 43.6028 142.858 43.7106C142.988 43.8144 143.096 43.91 143.184 43.9955C143.769 44.6262 144.062 45.2894 144.062 45.9893Z" fill="#A8A9AD"/>
<path d="M149.779 43.9063C149.725 43.6784 149.649 43.4627 149.552 43.2552C149.454 43.0436 149.336 42.8605 149.202 42.7018C149.072 42.5452 148.919 42.4211 148.746 42.3275C148.571 42.2359 148.388 42.1891 148.193 42.1891C147.997 42.1891 147.812 42.2339 147.639 42.3193C147.464 42.4007 147.306 42.5187 147.159 42.6693C147.017 42.8158 146.887 42.9948 146.769 43.2064C146.655 43.418 146.561 43.6519 146.492 43.9063H149.779ZM151.228 44.4108H146.435C146.39 44.7099 146.37 44.9276 146.37 45.0619C146.37 45.4098 146.429 45.7495 146.549 46.0791C146.667 46.4046 146.836 46.6976 147.054 46.958C147.269 47.2144 147.53 47.4219 147.835 47.5847C148.138 47.7474 148.473 47.841 148.844 47.8613C149.212 47.8512 149.576 47.7596 149.934 47.5847C150.292 47.4056 150.626 47.135 150.935 46.7708L151.147 47.0394C150.245 48.2113 149.255 48.7972 148.176 48.7972C147.617 48.7972 147.123 48.6507 146.695 48.3578C146.266 48.0607 145.918 47.6314 145.654 47.072C145.54 46.8176 145.45 46.547 145.385 46.2581C145.32 45.9713 145.288 45.6783 145.288 45.3792C145.288 44.9235 145.357 44.482 145.499 44.0527C145.646 43.6194 145.853 43.2369 146.126 42.9053C146.403 42.5757 146.738 42.3092 147.135 42.1077C147.53 41.9084 147.981 41.8066 148.486 41.8066C148.962 41.8066 149.364 41.8697 149.69 41.9938C150.02 42.12 150.276 42.3153 150.455 42.5798C150.53 42.7425 150.63 42.9378 150.756 43.1657C150.88 43.3895 151.037 43.6519 151.228 43.9551V44.4108Z" fill="#A8A9AD"/>
<path d="M157.955 47.0231C157.233 48.2072 156.242 48.7972 154.985 48.7972C154.588 48.7972 154.222 48.7179 153.887 48.5612C153.549 48.4046 153.256 48.1848 153.008 47.902C152.764 47.6152 152.57 47.2734 152.43 46.8766C152.288 46.4819 152.212 46.0445 152.202 45.5664C152.202 45.0903 152.292 44.6265 152.471 44.1748C152.65 43.7191 152.904 43.3183 153.236 42.9704C153.565 42.6245 153.964 42.3438 154.432 42.1322C154.904 41.9165 155.429 41.8066 156.01 41.8066C156.265 41.8066 156.503 41.829 156.726 41.8717C156.954 41.9104 157.152 41.9694 157.32 42.0508C157.493 42.1322 157.63 42.2359 157.727 42.36C157.829 42.4801 157.882 42.6204 157.882 42.7832C157.882 43.1372 157.713 43.3122 157.377 43.3122C157.127 43.3122 156.826 43.1535 156.474 42.832C156.289 42.653 156.108 42.5228 155.929 42.4414C155.754 42.356 155.591 42.3112 155.441 42.3112C155.184 42.3112 154.932 42.3824 154.684 42.5228C154.44 42.6652 154.22 42.8646 154.025 43.125C153.83 43.3814 153.669 43.6865 153.545 44.0446C153.425 44.3986 153.366 44.7852 153.366 45.2083C153.366 46.3212 153.74 47.1371 154.489 47.6579C154.668 47.7718 154.851 47.8654 155.042 47.9346C155.237 47.9997 155.441 48.0322 155.652 48.0322C156.027 48.0322 156.379 47.9346 156.71 47.7393C157.046 47.5399 157.363 47.2306 157.662 46.8115L157.955 47.0231Z" fill="#A8A9AD"/>
<mask id="mask0_1218_4258" style="mask-type:luminance" maskUnits="userSpaceOnUse" x="0" y="15" width="36" height="35">
<path d="M0 15.4072H35.8379V50H0V15.4072Z" fill="white"/>
</mask>
<g mask="url(#mask0_1218_4258)">
<path d="M35.7097 47.8373C32.485 49.3388 28.8941 50.1892 25.0936 50.1892C23.3704 50.1892 21.6919 50.0142 20.0663 49.6826C8.62221 47.3511 0.00402832 37.2314 0.00402832 25.0895C0.00402832 21.6878 0.679486 18.4285 1.91647 15.4683H5.93666C8.85415 15.4683 11.2182 17.8324 11.2182 20.7478V40.8325H18.2231V25.3438L21.2606 29.2541L35.7097 47.8373Z" fill="white"/>
</g>
<mask id="mask1_1218_4258" style="mask-type:luminance" maskUnits="userSpaceOnUse" x="18" y="0" width="33" height="37">
<path d="M18.1295 0H50.0001V36.2407H18.1295V0Z" fill="white"/>
</mask>
<g mask="url(#mask1_1218_4258)">
<path d="M50.1833 25.0896C50.1833 29.0345 49.2779 32.7678 47.6422 36.0942H37.7097C36.1085 36.0942 34.5847 35.3639 33.5776 34.1045L25.7671 24.3287L38.5276 9.34654H29.8768L18.2231 23.5535V0.950116C20.4102 0.331625 22.7194 0 25.0937 0C37.4228 0 47.6747 8.89488 49.7845 20.6157C50.051 22.0622 50.1833 23.5657 50.1833 25.0896Z" fill="white"/>
</g>
<mask id="mask2_1218_4258" style="mask-type:luminance" maskUnits="userSpaceOnUse" x="10" y="25" width="26" height="25">
<path d="M10.8379 25.3027H35.838V49.9997H10.8379V25.3027Z" fill="white"/>
</mask>
<g mask="url(#mask2_1218_4258)">
<path d="M35.7098 47.8368C32.4851 49.3383 28.8942 50.1887 25.0937 50.1887C23.3705 50.1887 21.692 50.0137 20.0664 49.6821L11.2285 40.8442H18.2333V25.3555L35.7098 47.8368Z" fill="#A8A9AD"/>
</g>
<mask id="mask3_1218_4258" style="mask-type:luminance" maskUnits="userSpaceOnUse" x="25" y="9" width="25" height="28">
<path d="M25.4211 9.15723H50.0001V36.2406H25.4211V9.15723Z" fill="white"/>
</mask>
<g mask="url(#mask3_1218_4258)">
<path d="M50.1831 25.0897C50.1831 29.0346 49.2778 32.768 47.642 36.0944H37.7095C36.1084 36.0944 34.5845 35.364 33.5775 34.1046L25.767 24.3288L38.5274 9.34668L49.7966 20.6158C50.0509 22.0624 50.1831 23.5659 50.1831 25.0897Z" fill="#A8A9AD"/>
</g>
</svg>
