<svg width="50" height="50" viewBox="0 0 50 50" fill="none" xmlns="http://www.w3.org/2000/svg">
<path d="M20.4493 12.5117C20.9122 12.5469 21.3888 12.5723 21.8146 12.834C23.3146 13.7578 24.9337 14.416 26.6661 14.7539C28.7638 14.3769 30.7697 13.8535 32.7794 13.1465C33.9396 12.7363 35.2111 13.3457 35.6212 14.5058C36.0294 15.666 35.422 16.9375 34.2618 17.3476C31.9357 18.168 29.4708 18.7969 27.0392 19.2129C26.7521 19.2617 26.4689 19.2539 26.1993 19.1953C24.2052 18.8515 22.3126 18.1914 20.5314 17.2383L20.3771 17.6894L19.5646 46.4746C19.5294 47.7578 18.2247 48.7988 17.0548 48.7988C16.2697 48.7988 15.2892 48.4805 14.8869 47.9805C14.6642 47.7012 14.2384 47.7012 14.0158 47.9805C13.6154 48.4824 12.6349 48.7988 11.8478 48.7988C10.6779 48.7988 9.37904 47.7578 9.33802 46.4746L8.82044 30.3945L8.19349 30.3125C7.06068 30.164 5.70912 29.418 5.49818 28.2949C4.24232 21.6172 4.49818 21.3105 5.40247 14.3144C5.53333 13.8125 6.09583 12.9238 7.14857 12.8008L11.5665 12.2793C11.8497 12.2461 12.1173 12.3515 12.2736 12.5879L14.4494 15.873L16.6251 12.5879C16.7833 12.3496 17.0509 12.2461 17.3322 12.2793L20.4454 12.5098L20.4493 12.5117ZM14.5294 1.20116C16.8068 1.24608 18.6173 3.22069 18.5743 5.61131C18.5314 8.00194 16.6329 10.8613 14.3576 10.8164C12.0802 10.7715 10.2872 7.83983 10.3302 5.4492C10.3732 3.05858 12.254 1.15624 14.5294 1.20116Z" fill="#353C48"/>
<path fill-rule="evenodd" clip-rule="evenodd" d="M25.3673 22.1484L34.2696 19.8125L43.1719 22.1484C44.5372 22.5059 45.4532 23.748 45.3536 25.1543L44.668 34.791C44.2462 41.9258 41.0079 45.0605 35.836 48.334C34.8555 48.9531 33.6817 48.9531 32.7032 48.334C27.5313 45.0605 24.293 41.9258 23.8712 34.791L23.1856 25.1543C23.086 23.748 24.002 22.5059 25.3673 22.1484ZM26.7305 25.4258L27.379 34.5625V34.584C27.7051 40.0879 29.92 42.373 34.2696 45.1641V23.4492L26.7305 25.4277V25.4258Z" fill="#3083DC"/>
</svg>
