<svg width="102" height="32" viewBox="0 0 102 32" fill="none" xmlns="http://www.w3.org/2000/svg">
<path d="M39.7465 14.1732L47.0642 22.418H43.0642L37.6892 16.2305L36.3819 17.5586V22.418H33.1267V7.23572H36.3819V13.3815L42.4861 7.23572H46.6371L39.7465 14.1732Z" fill="#1E3A8A"/>
<path d="M59.0161 11.7982V22.418H56.464L56.1671 21.2826C55.7531 21.8386 55.257 22.2097 54.6776 22.3972C54.1007 22.5808 53.4979 22.6732 52.8703 22.6732C52.1125 22.6732 51.4172 22.5274 50.7817 22.2357C50.1463 21.9441 49.5916 21.5456 49.1203 21.0378C48.6515 20.5313 48.2843 19.9389 48.0213 19.2618C47.757 18.5821 47.6255 17.8555 47.6255 17.0847C47.6255 16.3139 47.757 15.5899 48.0213 14.9128C48.2843 14.2357 48.6515 13.6446 49.1203 13.1368C49.5916 12.6303 50.1463 12.2305 50.7817 11.9389C51.4172 11.6446 52.1125 11.4962 52.8703 11.4962C53.5539 11.4962 54.1802 11.6042 54.7505 11.8191C55.3234 12.0352 55.7948 12.3764 56.1671 12.8451L56.464 11.7982H59.0161ZM56.0578 17.1316C56.0578 16.573 55.9823 16.1042 55.8338 15.7253C55.6841 15.3477 55.4849 15.0417 55.2349 14.8087C54.9849 14.573 54.6906 14.4011 54.3547 14.293C54.0213 14.1863 53.6619 14.1316 53.2765 14.1316C52.8911 14.1316 52.5291 14.2097 52.1932 14.3659C51.8599 14.5222 51.5643 14.7344 51.3078 15.0014C51.05 15.2657 50.8494 15.5795 50.7036 15.9441C50.5604 16.306 50.4901 16.6863 50.4901 17.0847C50.4901 17.5014 50.5604 17.8894 50.7036 18.2462C50.8494 18.6003 51.05 18.9102 51.3078 19.1732C51.5643 19.4376 51.8599 19.6498 52.1932 19.8087C52.5291 19.9649 52.8911 20.043 53.2765 20.043C54.0474 20.043 54.6997 19.8034 55.2349 19.3243C55.7687 18.8451 56.0435 18.1146 56.0578 17.1316Z" fill="#1E3A8A"/>
<path d="M60.5745 6.76697H63.5328V22.418H60.5745V6.76697Z" fill="#1E3A8A"/>
<path d="M68.1368 22.418H65.1784V11.7982H68.1368V22.418ZM66.6576 10.3399C66.1993 10.3399 65.8138 10.1836 65.5013 9.87113C65.1888 9.55863 65.0326 9.17322 65.0326 8.71488C65.0326 8.25655 65.1888 7.86853 65.5013 7.54822C65.8138 7.2253 66.1993 7.06384 66.6576 7.06384C67.1159 7.06384 67.5013 7.2253 67.8138 7.54822C68.1263 7.86853 68.2826 8.25655 68.2826 8.71488C68.2826 9.17322 68.1263 9.55863 67.8138 9.87113C67.5013 10.1836 67.1159 10.3399 66.6576 10.3399Z" fill="#1E3A8A"/>
<path d="M76.0577 11.4961C76.7999 11.4961 77.4926 11.6446 78.1359 11.9388C78.7778 12.2305 79.3338 12.6303 79.8025 13.1368C80.2739 13.6446 80.6424 14.2357 80.9067 14.9128C81.1697 15.5899 81.3025 16.3138 81.3025 17.0847C81.3025 17.8555 81.1697 18.5821 80.9067 19.2618C80.6424 19.9388 80.2739 20.5313 79.8025 21.0378C79.3338 21.5456 78.7778 21.9441 78.1359 22.2357C77.4926 22.5274 76.7999 22.6732 76.0577 22.6732C75.4288 22.6732 74.8247 22.5638 74.2452 22.3451C73.6684 22.1237 73.2153 21.8399 72.8859 21.4961L72.4588 22.418H69.9327V6.78781H72.8859V12.6524C73.701 11.8816 74.7583 11.4961 76.0577 11.4961ZM75.6515 20.043C76.0369 20.043 76.3963 19.9649 76.7296 19.8086C77.0655 19.6498 77.3624 19.4375 77.6202 19.1732C77.8767 18.9102 78.076 18.6003 78.2192 18.2461C78.3611 17.8894 78.4327 17.5013 78.4327 17.0847C78.4327 16.6862 78.3611 16.306 78.2192 15.9441C78.076 15.5795 77.8767 15.2657 77.6202 15.0013C77.3624 14.7344 77.0655 14.5222 76.7296 14.3659C76.3963 14.2097 76.0369 14.1316 75.6515 14.1316C75.2661 14.1316 74.9041 14.1862 74.5682 14.293C74.2348 14.4011 73.9432 14.573 73.6932 14.8086C73.4432 15.0417 73.2452 15.3477 73.0994 15.7253C72.9562 16.1042 72.8859 16.573 72.8859 17.1316C72.8859 17.6289 72.9562 18.0586 73.0994 18.4232C73.2452 18.7878 73.4432 19.0886 73.6932 19.3243C73.9432 19.5612 74.2348 19.7396 74.5682 19.8607C74.9041 19.9831 75.2661 20.043 75.6515 20.043Z" fill="#1E3A8A"/>
<path d="M85.0491 13.2774C85.191 13.0482 85.3538 12.8321 85.5387 12.6264C85.7262 12.418 85.9475 12.2331 86.2053 12.0691C86.4618 11.9024 86.7535 11.7709 87.0803 11.6732C87.4097 11.573 87.7808 11.5222 88.1949 11.5222C88.6806 11.5222 89.2444 11.6081 89.8876 11.7774L89.6116 14.4076C89.4553 14.3803 89.2965 14.3451 89.1376 14.3034C89.0087 14.2761 88.8668 14.2514 88.7105 14.2305C88.5543 14.2071 88.411 14.1941 88.2834 14.1941C87.8251 14.1941 87.3993 14.2592 87.0074 14.3868C86.6142 14.5157 86.2756 14.6941 85.9918 14.9232C85.7066 15.1524 85.4775 15.4284 85.3043 15.7513C85.1337 16.0717 85.0491 16.4167 85.0491 16.7878V22.418H82.0959V11.7982H84.773L85.0491 13.2774Z" fill="#1E3A8A"/>
<path d="M95.7755 11.4962C96.5737 11.4962 97.3016 11.6576 97.9578 11.9805C98.6167 12.3008 99.1818 12.7201 99.6505 13.2409C100.122 13.7618 100.486 14.3633 100.744 15.043C101.001 15.7201 101.13 16.4167 101.13 17.1316C101.13 17.5587 101.072 18.0157 100.958 18.5014H93.3797C93.6635 18.9844 94.0698 19.3946 94.5984 19.7305C95.1258 20.0678 95.6974 20.2357 96.312 20.2357C96.9266 20.2357 97.4643 20.1863 97.9266 20.0847C98.3914 19.9844 98.8302 19.8555 99.2443 19.6993L100.229 21.517C99.7 21.8894 99.0984 22.1758 98.4213 22.3764C97.7443 22.5743 97.0203 22.6732 96.2495 22.6732C95.4057 22.6732 94.6193 22.5274 93.8901 22.2357C93.1635 21.9441 92.5281 21.5482 91.9838 21.0482C91.4422 20.5482 91.0125 19.9571 90.6974 19.2722C90.3849 18.5847 90.2286 17.8555 90.2286 17.0847C90.2286 16.3282 90.3706 15.6107 90.6557 14.9337C90.9435 14.2566 91.3406 13.6654 91.8484 13.1576C92.3549 12.6511 92.9435 12.2488 93.6141 11.9493C94.2833 11.6472 95.0047 11.4962 95.7755 11.4962ZM98.1974 16.2097C98.0229 15.5951 97.7156 15.0951 97.2755 14.7097C96.8341 14.3243 96.3341 14.1316 95.7755 14.1316C95.2052 14.1316 94.6883 14.3243 94.2234 14.7097C93.7612 15.0951 93.4435 15.5951 93.2703 16.2097H98.1974Z" fill="#1E3A8A"/>
<path d="M81.9552 29.3759C81.9058 29.54 81.8524 29.6988 81.7938 29.8551C81.7378 30.0087 81.6805 30.1545 81.6219 30.2926C81.562 30.4319 81.5021 30.5608 81.4396 30.678C81.3797 30.7965 81.325 30.8993 81.2729 30.9853C81.2274 30.9683 81.1857 30.9579 81.1479 30.954C81.1089 30.9475 81.0724 30.9436 81.0386 30.9436C80.9891 30.9436 80.9344 30.954 80.8719 30.9749C80.8511 30.9788 80.8094 30.9879 80.7469 31.0009C80.687 31.0113 80.6167 31.0243 80.5334 31.0374C80.4526 31.0517 80.3667 31.0673 80.2729 31.0842C80.1818 31.1012 80.092 31.1168 80.0021 31.1311C79.9149 31.148 79.8354 31.1624 79.7625 31.1728C79.6896 31.1858 79.6336 31.1962 79.5959 31.204C79.3797 31.2522 79.1401 31.273 78.8771 31.2665C78.217 31.2665 77.6076 31.1311 77.049 30.8603C76.7469 30.7144 76.4787 30.5374 76.2469 30.329C76.0177 30.1181 75.8172 29.8798 75.6479 29.6155C75.3354 29.109 75.1792 28.5309 75.1792 27.8811C75.1792 27.5309 75.217 27.2066 75.2938 26.9072C75.3732 26.6051 75.4943 26.3173 75.6584 26.0426C75.8146 25.7861 76.0086 25.553 76.2417 25.3447C76.4735 25.1363 76.7378 24.9514 77.0334 24.7874C77.325 24.6285 77.6323 24.5152 77.9552 24.4488C78.2808 24.3798 78.6271 24.3434 78.9917 24.3394C79.2795 24.3394 79.5724 24.3655 79.8719 24.4176C80.1701 24.4697 80.4552 24.5426 80.7261 24.6363C80.8328 24.6715 80.9318 24.7014 81.0229 24.7249C81.1128 24.7496 81.1701 24.7613 81.1948 24.7613C81.3016 24.7613 81.3641 24.7392 81.3823 24.6936H81.5646L81.6636 26.2717H81.424C81.299 25.928 81.1232 25.6389 80.8979 25.4019C80.6753 25.1663 80.4084 24.9801 80.0959 24.8447C79.9318 24.7796 79.7638 24.7301 79.5907 24.6988C79.4162 24.6676 79.2339 24.6519 79.0438 24.6519C77.8693 24.6519 77.0464 25.1337 76.575 26.0947C76.4604 26.3238 76.3719 26.5686 76.3094 26.829C76.2495 27.0894 76.2209 27.3681 76.2209 27.6624C76.2209 28.1285 76.2938 28.553 76.4396 28.9384C76.5881 29.3238 76.8068 29.6806 77.0959 30.0061C77.3797 30.3225 77.7 30.5569 78.0542 30.7092C78.411 30.8629 78.7834 30.941 79.1688 30.9436C80.2938 30.9436 81.144 30.4215 81.7209 29.3759H81.9552Z" fill="#4F4C4C"/>
<path d="M86.3776 29.2665C86.3776 28.9683 86.3333 28.6858 86.2474 28.4176C86.1641 28.1467 86.0495 27.9111 85.9036 27.7092C85.7604 27.5087 85.5924 27.3486 85.3984 27.2301C85.207 27.1129 85 27.053 84.7786 27.053C84.612 27.053 84.4479 27.0972 84.2891 27.1832C84.1289 27.2665 83.9883 27.3837 83.8672 27.5321C83.7448 27.678 83.6458 27.8486 83.5703 28.0426C83.4935 28.234 83.4557 28.4384 83.4557 28.6571C83.4557 29.0816 83.526 29.4579 83.6693 29.7874C83.8112 30.1181 84.013 30.3889 84.2734 30.5999C84.3945 30.6936 84.5247 30.7691 84.6641 30.8238C84.8021 30.8759 84.9375 30.9019 85.0703 30.9019C85.2331 30.9019 85.3932 30.8655 85.5495 30.7926C85.7057 30.7196 85.8437 30.6142 85.9661 30.4749C86.0872 30.3329 86.1862 30.161 86.263 29.9592C86.3385 29.7587 86.3776 29.5269 86.3776 29.2665ZM87.2161 29.0009C87.2161 29.3173 87.1549 29.6129 87.0339 29.8863C86.9115 30.1571 86.7474 30.3915 86.5391 30.5894C86.3307 30.7874 86.0911 30.9436 85.8203 31.0582C85.5495 31.1728 85.2604 31.2301 84.9557 31.2301C84.5078 31.2301 84.1133 31.1363 83.7734 30.9488C83.4362 30.7613 83.1589 30.4905 82.9401 30.1363C82.8424 29.984 82.7682 29.8082 82.7161 29.6103C82.6641 29.4124 82.6354 29.2183 82.6328 29.0269C82.6328 28.6936 82.6914 28.3889 82.8099 28.1103C82.931 27.8329 83.0964 27.5946 83.3047 27.3967C83.513 27.1962 83.7552 27.04 84.0339 26.928C84.3112 26.8134 84.6081 26.7561 84.9245 26.7561C85.2539 26.7561 85.5547 26.8069 85.8255 26.9071C86.0964 27.0087 86.3411 27.1676 86.5599 27.3863C86.9974 27.8134 87.2161 28.3525 87.2161 29.0009Z" fill="#4F4C4C"/>
<path d="M92.1999 29.4332C92.1999 29.704 92.144 29.9527 92.0333 30.178C91.9213 30.4045 91.769 30.5986 91.5749 30.7613C91.3796 30.9215 91.1505 31.0452 90.8874 31.1311C90.627 31.221 90.3432 31.2665 90.0385 31.2665C89.9161 31.2665 89.7585 31.2457 89.5645 31.204C89.3692 31.165 89.1635 31.1168 88.9447 31.0582C88.8367 31.0308 88.752 31.0113 88.6895 31.0009C88.6296 30.9879 88.588 30.9801 88.5645 30.9801C88.4942 30.9801 88.4304 31.0165 88.3718 31.0894H88.1739L87.95 29.4384H88.2C88.252 29.6611 88.3315 29.8642 88.4395 30.0478C88.5502 30.2288 88.6817 30.3837 88.8354 30.5113C88.9916 30.6402 89.1635 30.7405 89.351 30.8134C89.5385 30.8863 89.7377 30.9228 89.9499 30.9228C90.1479 30.9228 90.3315 30.8941 90.502 30.8342C90.6752 30.7717 90.8263 30.6871 90.9552 30.579C91.0867 30.4683 91.1895 30.3394 91.2624 30.1936C91.338 30.0452 91.377 29.8811 91.377 29.704C91.377 29.5348 91.3223 29.3629 91.2156 29.1884C91.1075 29.0152 90.9604 28.8434 90.7729 28.6728C90.7026 28.6103 90.5763 28.5204 90.3927 28.4019C90.2117 28.2848 89.9877 28.1389 89.7208 27.9644C89.4604 27.7952 89.2325 27.6337 89.0385 27.4801C88.8432 27.3277 88.6856 27.2079 88.5645 27.1207C88.4604 27.0374 88.3744 26.9462 88.3093 26.8447C88.2429 26.7405 88.1895 26.6337 88.1479 26.5217C88.1062 26.4072 88.075 26.2965 88.0541 26.1884C88.0333 26.0777 88.0138 25.9749 87.9968 25.8811C87.9968 25.6832 88.0411 25.4931 88.1322 25.3082C88.2221 25.1207 88.3484 24.9566 88.5125 24.8134C88.6791 24.6715 88.8783 24.5569 89.1114 24.4697C89.3432 24.3837 89.6036 24.3394 89.8927 24.3394C90.0619 24.3394 90.2377 24.3551 90.4187 24.3863C90.6023 24.4176 90.7846 24.4671 90.9656 24.5322C91.0385 24.553 91.1075 24.5712 91.1739 24.5842C91.239 24.5947 91.2898 24.5999 91.3249 24.5999C91.3901 24.5999 91.4499 24.566 91.502 24.4957H91.7104L91.8822 25.8707H91.6687C91.5958 25.691 91.4994 25.5243 91.3822 25.3707C91.2677 25.2184 91.1348 25.0881 90.9864 24.9801C90.8406 24.8733 90.6817 24.79 90.5124 24.7301C90.3419 24.6715 90.1661 24.6415 89.9864 24.6415C89.8197 24.6415 89.6648 24.665 89.5229 24.7092C89.3835 24.7548 89.2625 24.8186 89.1583 24.9019C89.0567 24.9853 88.9773 25.0881 88.9187 25.2092C88.8588 25.3277 88.8302 25.4631 88.8302 25.6155C88.8302 25.7756 88.8783 25.9384 88.976 26.1051C89.0763 26.2691 89.2273 26.4358 89.4291 26.6051C89.4773 26.6467 89.5919 26.7275 89.7729 26.8447C89.9526 26.9631 90.1856 27.1103 90.4708 27.2874C90.5919 27.3642 90.7104 27.4423 90.8249 27.5217C90.9395 27.6025 91.0463 27.6806 91.1479 27.7561C91.252 27.8329 91.3458 27.9059 91.4291 27.9749C91.5124 28.0413 91.5815 28.1025 91.6374 28.1572C92.0124 28.5608 92.1999 28.9853 92.1999 29.4332Z" fill="#4F4C4C"/>
<path d="M95.8589 28.0999C95.8237 27.954 95.7756 27.816 95.7131 27.6832C95.6506 27.5478 95.575 27.4306 95.4891 27.329C95.4058 27.2288 95.3081 27.1493 95.1974 27.0894C95.0854 27.0308 94.9683 27.0009 94.8433 27.0009C94.7183 27.0009 94.5998 27.0295 94.4891 27.0842C94.3771 27.1363 94.2756 27.2118 94.1818 27.3082C94.0907 27.4019 94.0073 27.5165 93.9318 27.6519C93.8589 27.7874 93.799 27.9371 93.7547 28.0999H95.8589ZM96.786 28.4228H93.7183C93.6896 28.6142 93.6766 28.7535 93.6766 28.8394C93.6766 29.0621 93.7144 29.2795 93.7912 29.4905C93.8667 29.6988 93.9748 29.8863 94.1141 30.053C94.2521 30.217 94.4188 30.3499 94.6141 30.454C94.8081 30.5582 95.0229 30.6181 95.2599 30.6311C95.4956 30.6246 95.7287 30.566 95.9578 30.454C96.187 30.3394 96.4006 30.1663 96.5985 29.9332L96.7339 30.1051C96.1571 30.8551 95.5229 31.2301 94.8328 31.2301C94.4748 31.2301 94.1584 31.1363 93.8849 30.9488C93.6102 30.7587 93.3875 30.484 93.2183 30.1259C93.1453 29.9631 93.0881 29.79 93.0464 29.6051C93.0047 29.4215 92.9839 29.234 92.9839 29.0426C92.9839 28.7509 93.0282 28.4683 93.1193 28.1936C93.2131 27.9163 93.3459 27.6715 93.5203 27.4592C93.6974 27.2483 93.9123 27.0777 94.1662 26.9488C94.4188 26.8212 94.7078 26.7561 95.0308 26.7561C95.3354 26.7561 95.5933 26.7965 95.8016 26.8759C96.0125 26.9566 96.1766 27.0816 96.2912 27.2509C96.3394 27.3551 96.4032 27.4801 96.4839 27.6259C96.5633 27.7691 96.6636 27.9371 96.786 28.1311V28.4228Z" fill="#4F4C4C"/>
<path d="M101.091 30.0946C100.629 30.8525 99.995 31.2301 99.1903 31.2301C98.9364 31.2301 98.702 31.1793 98.4872 31.079C98.271 30.9788 98.0835 30.8381 97.9247 30.6571C97.7684 30.4735 97.6447 30.2548 97.5549 30.0009C97.4637 29.7483 97.4156 29.4683 97.4091 29.1624C97.4091 28.8577 97.4663 28.5608 97.5809 28.2717C97.6955 27.9801 97.8583 27.7236 98.0705 27.5009C98.2815 27.2795 98.5367 27.0999 98.8361 26.9644C99.1382 26.8264 99.4742 26.7561 99.8466 26.7561C100.009 26.7561 100.162 26.7704 100.305 26.7978C100.451 26.8225 100.577 26.8603 100.685 26.9124C100.796 26.9644 100.883 27.0308 100.946 27.1103C101.011 27.1871 101.044 27.2769 101.044 27.3811C101.044 27.6077 100.936 27.7196 100.722 27.7196C100.561 27.7196 100.369 27.6181 100.143 27.4124C100.025 27.2978 99.9091 27.2144 99.7945 27.1624C99.6825 27.1077 99.5783 27.079 99.482 27.079C99.3179 27.079 99.1565 27.1246 98.9976 27.2144C98.8413 27.3056 98.7007 27.4332 98.5757 27.5999C98.4507 27.7639 98.3479 27.9592 98.2684 28.1884C98.1916 28.415 98.1538 28.6624 98.1538 28.9332C98.1538 29.6454 98.3934 30.1676 98.8726 30.5009C98.9872 30.5738 99.1044 30.6337 99.2268 30.678C99.3518 30.7196 99.482 30.7405 99.6174 30.7405C99.857 30.7405 100.082 30.678 100.294 30.553C100.509 30.4254 100.712 30.2275 100.904 29.9592L101.091 30.0946Z" fill="#4F4C4C"/>
<mask id="mask0_339_860" style="mask-type:luminance" maskUnits="userSpaceOnUse" x="0" y="9" width="23" height="23">
<path d="M0 9.86069H22.9362V32H0V9.86069Z" fill="white"/>
</mask>
<g mask="url(#mask0_339_860)">
<path d="M22.8541 30.6159C20.7903 31.5768 18.4921 32.1211 16.0598 32.1211C14.957 32.1211 13.8828 32.0091 12.8424 31.7969C5.51818 30.3047 0.00256348 23.8281 0.00256348 16.0573C0.00256348 13.8802 0.434855 11.7943 1.22652 9.89975H3.79944C5.66662 9.89975 7.17964 11.4128 7.17964 13.2787V26.1328H11.6627V16.2201L13.6067 18.7227L22.8541 30.6159Z" fill="#1E3A8A"/>
</g>
<mask id="mask1_339_860" style="mask-type:luminance" maskUnits="userSpaceOnUse" x="11" y="0" width="21" height="24">
<path d="M11.6028 0H31.9999V23.194H11.6028V0Z" fill="white"/>
</mask>
<g mask="url(#mask1_339_860)">
<path d="M32.1171 16.0573C32.1171 18.582 31.5377 20.9713 30.4908 23.1002H24.1341C23.1093 23.1002 22.1341 22.6328 21.4895 21.8268L16.4908 15.5703L24.6575 5.98177H19.121L11.6627 15.0742V0.608073C13.0625 0.212239 14.5403 0 16.0599 0C23.9505 0 30.5117 5.69271 31.8619 13.194C32.0325 14.1198 32.1171 15.082 32.1171 16.0573Z" fill="#1E3A8A"/>
</g>
<mask id="mask2_339_860" style="mask-type:luminance" maskUnits="userSpaceOnUse" x="6" y="16" width="17" height="16">
<path d="M6.93616 16.194H22.9361V32H6.93616V16.194Z" fill="white"/>
</mask>
<g mask="url(#mask2_339_860)">
<path d="M22.8541 30.6159C20.7903 31.5768 18.4921 32.1211 16.0598 32.1211C14.957 32.1211 13.8828 32.0091 12.8424 31.7969L7.18616 26.1406H11.6692V16.2279L22.8541 30.6159Z" fill="#A8A9AD"/>
</g>
<mask id="mask3_339_860" style="mask-type:luminance" maskUnits="userSpaceOnUse" x="16" y="5" width="16" height="19">
<path d="M16.2695 5.86069H32V23.194H16.2695V5.86069Z" fill="white"/>
</mask>
<g mask="url(#mask3_339_860)">
<path d="M32.1171 16.0573C32.1171 18.582 31.5377 20.9714 30.4908 23.1003H24.1341C23.1093 23.1003 22.1341 22.6328 21.4895 21.8268L16.4908 15.5703L24.6575 5.98178L31.8697 13.194C32.0325 14.1198 32.1171 15.082 32.1171 16.0573Z" fill="#A8A9AD"/>
</g>
</svg>
