<svg width="50" height="50" viewBox="0 0 50 50" fill="none" xmlns="http://www.w3.org/2000/svg">
<path d="M42.0764 27.9024L41.2924 32.7587C41.2924 32.7587 31.4974 40.566 28.1034 40.517H21.8964C17.8718 40.3714 8.31944 30.819 8.31944 30.819L7.97811 28.1037C7.21778 16.132 15.3951 11.9814 15.7288 11.8107H15.7364C17.2094 10.938 20.2158 11.0994 21.1131 11.7954L21.1208 11.8107C22.5668 12.601 23.8511 13.6564 24.9068 14.922H25.1394C26.1994 13.664 27.4801 12.6097 28.9178 11.8107C30.6914 11.4257 32.5264 11.4204 34.3021 11.7954L34.3094 11.8107C34.3104 11.8107 42.7518 15.8374 42.0764 27.9024Z" fill="#AC9AAD"/>
<path d="M20.3448 19.5693C20.3401 20.7893 20.8201 21.9613 21.6791 22.828C20.8645 23.433 18.0171 26.001 18.0171 31.983L17.9551 32.0603C17.5521 31.721 17.0888 31.4607 16.5895 31.292C15.1335 30.7017 13.7821 29.8824 12.5861 28.864C12.3455 28.67 12.1128 28.4837 11.8955 28.2977C10.7938 27.3663 9.15647 27.863 8.14013 28.8797L8.31847 30.8193L7.97713 28.1037C7.2168 16.1323 15.3941 11.9813 15.7278 11.8107H15.7355C16.5318 12.321 17.4585 12.5907 18.4045 12.5867C19.3645 12.589 20.3045 12.3143 21.1121 11.7953L21.1198 11.8107C22.5658 12.601 23.8501 13.6563 24.9058 14.922C22.3738 14.9687 20.3448 17.0357 20.3448 19.5693Z" fill="#8ABC92"/>
<path d="M23.4482 7.54373C23.4449 10.3274 21.1889 12.5834 18.4052 12.5867C17.4569 12.5907 16.5279 12.3211 15.7286 11.8107C13.6762 10.5227 12.8306 7.9564 13.7152 5.70073C14.5999 3.44506 16.9649 2.13773 19.3456 2.58873C21.7262 3.0394 23.4496 5.1204 23.4482 7.54373Z" fill="#685953"/>
<path d="M36.638 7.54368C36.6343 10.3274 34.3787 12.5834 31.5947 12.5867C30.6467 12.5907 29.7173 12.321 28.918 11.8107C26.8657 10.5227 26.02 7.95635 26.9047 5.70068C27.7897 3.44468 30.154 2.13769 32.5353 2.58869C34.916 3.03935 36.639 5.12035 36.638 7.54368Z" fill="#685953"/>
<path d="M23.4482 6.87704C23.4449 9.66071 21.1889 11.9167 18.4052 11.92C17.4569 11.924 16.5279 11.6544 15.7286 11.144C13.6762 9.85604 12.8306 7.28971 13.7152 5.03404C14.5999 2.77838 16.9649 1.47104 19.3456 1.92204C21.7262 2.37271 23.4496 4.45371 23.4482 6.87704Z" fill="#9D9490"/>
<path d="M36.638 6.877C36.6343 9.66066 34.3787 11.9167 31.5947 11.92C30.6467 11.924 29.7173 11.6543 28.918 11.144C26.8657 9.856 26.02 7.28966 26.9047 5.034C27.7897 2.778 30.154 1.471 32.5353 1.922C34.916 2.37266 36.639 4.45366 36.638 6.877Z" fill="#9D9490"/>
<path d="M32.0447 32.0607C31.7257 32.314 31.4367 32.6027 31.1834 32.922C30.1697 34.2393 29.6307 35.8603 29.6554 37.5227V39.7417H28.8794C28.4514 39.743 28.1051 40.0893 28.1034 40.5173H21.8964C21.8954 40.0897 21.5487 39.743 21.1207 39.7417H20.3447V37.5227C20.3691 35.8607 19.8304 34.2393 18.8164 32.922C18.5634 32.6027 18.2744 32.314 17.9551 32.0607L18.0174 31.983C18.0174 26.0013 20.8647 23.4333 21.6794 22.828C22.5537 23.721 23.7504 24.2247 25.0001 24.2247C26.2497 24.2247 27.4467 23.721 28.3207 22.828C29.1354 23.4333 31.9827 26.0013 31.9827 31.983L32.0447 32.0607Z" fill="#F0C419"/>
<path d="M29.6552 19.9026C29.6588 22.4623 27.5948 24.5446 25.0355 24.5643C22.4758 24.584 20.3805 22.533 20.3452 19.9736C20.3098 17.414 22.3475 15.3063 24.9068 15.2553C24.9375 15.249 24.9688 15.2463 24.9998 15.2476C25.0465 15.2463 25.0932 15.249 25.1395 15.2553C27.6542 15.3276 29.6548 17.387 29.6552 19.9026Z" fill="#685953"/>
<path d="M29.6552 19.126C29.6588 21.6856 27.5948 23.768 25.0355 23.7876C22.4758 23.8073 20.3805 21.7563 20.3452 19.197C20.3098 16.6373 22.3475 14.5296 24.9068 14.4786C24.9375 14.4723 24.9688 14.4696 24.9998 14.471C25.0465 14.4696 25.0932 14.4723 25.1395 14.4786C27.6542 14.551 29.6548 16.6103 29.6552 19.126Z" fill="#9D9490"/>
<path d="M12.5859 30.431C12.2069 30.4307 11.8839 30.157 11.8215 29.7833C11.0175 24.959 13.3265 19.494 13.4255 19.2637C13.5952 18.8717 14.0502 18.6907 14.4429 18.859C14.8359 19.027 15.0185 19.4817 14.8519 19.875C14.8295 19.9273 12.6239 25.1587 13.3522 29.528C13.3895 29.753 13.3262 29.983 13.1785 30.1573C13.0309 30.3317 12.8139 30.4313 12.5859 30.431Z" fill="#537259"/>
<path d="M37.4139 30.431C37.1859 30.4313 36.9692 30.331 36.8219 30.157C36.6742 29.983 36.6109 29.7526 36.6482 29.5276C37.3782 25.1473 35.1709 19.9273 35.1489 19.875C35.0396 19.6203 35.0742 19.3266 35.2406 19.1046C35.4066 18.8826 35.6782 18.766 35.9532 18.799C36.2286 18.832 36.4652 19.009 36.5746 19.2636C36.6736 19.494 38.9826 24.959 38.1786 29.7836C38.1162 30.157 37.7932 30.4306 37.4139 30.431Z" fill="#7F6980"/>
<path d="M19.5695 37.4136C19.1408 37.4136 18.7935 37.0663 18.7935 36.638C18.7935 36.4253 18.8218 31.3973 21.2975 28.3866C21.4735 28.1716 21.7505 28.0673 22.0245 28.1133C22.2985 28.1583 22.5271 28.3463 22.6245 28.6063C22.7218 28.866 22.6731 29.1586 22.4965 29.3726C20.3698 31.9583 20.3451 36.5913 20.3451 36.6383C20.3451 37.0663 19.9978 37.4136 19.5695 37.4136Z" fill="#F29C1F"/>
<path d="M30.4313 37.4136C30.0033 37.4136 29.6563 37.0666 29.6556 36.639C29.6556 36.592 29.6239 31.95 27.5043 29.3723C27.2333 29.041 27.2809 28.553 27.6119 28.2813C27.9423 28.0096 28.4303 28.0563 28.7026 28.3866C31.1786 31.3973 31.2073 36.425 31.2073 36.638C31.2073 37.066 30.8603 37.413 30.4319 37.4133L30.4313 37.4136Z" fill="#F29C1F"/>
<path d="M8.23389 28.4703L8.52822 28.315V28.3073C9.54655 27.2856 11.1772 27.2113 12.2839 28.137C12.5009 28.323 12.7342 28.509 12.9742 28.703C14.1702 29.7216 15.5222 30.5413 16.9776 31.1313C17.4769 31.2996 17.9402 31.5603 18.3436 31.8996C18.6622 32.153 18.9516 32.4416 19.2049 32.761C20.2186 34.0783 20.7576 35.6993 20.7329 37.3616V39.5806" fill="#685953"/>
<path d="M20.345 37.5223V39.7413L20.563 40.723L12.8127 40.905L12.8347 39.7413L7.22501 34.132C6.58467 33.4977 6.06634 32.7503 5.69701 31.9287L2.65534 25.241C2.55234 25.0197 2.49934 24.7787 2.50001 24.535C2.50234 23.5973 3.26167 22.838 4.19901 22.836C4.87967 22.8333 5.49501 23.2403 5.75867 23.8677L7.49634 27.9173C7.54301 28.026 7.59734 28.1423 7.65167 28.251C7.68534 28.3353 7.72701 28.4157 7.77567 28.4917C7.77567 28.5077 7.78334 28.515 7.79134 28.5303C7.80667 28.5617 7.83001 28.6003 7.84567 28.6317L8.14034 28.476V28.4687C8.42101 28.1863 8.76001 27.969 9.13334 27.8327C10.07 27.472 11.1287 27.65 11.8953 28.298C12.1127 28.4843 12.3453 28.67 12.586 28.8643C13.7817 29.8827 15.1337 30.7023 16.5893 31.2923C17.0883 31.461 17.5517 31.7213 17.9547 32.0607C18.274 32.314 18.5627 32.6027 18.8157 32.922C19.8307 34.2393 20.369 35.8603 20.345 37.5223Z" fill="#9D9490"/>
<path d="M29.3221 39.5806V37.3616C29.2974 35.6996 29.8364 34.0783 30.8501 32.761C31.1034 32.4416 31.3928 32.153 31.7114 31.8996C32.1148 31.5603 32.5781 31.2996 33.0774 31.1313C34.5328 30.541 35.8848 29.7216 37.0808 28.703C37.3211 28.509 37.5541 28.3226 37.7711 28.137C38.8774 27.2113 40.5084 27.2853 41.5268 28.3073V28.315L41.8211 28.4703" fill="#685953"/>
<path d="M29.6551 39.7416V37.5227C29.6304 35.8607 30.1694 34.2393 31.1831 32.922C31.4364 32.6026 31.7258 32.314 32.0444 32.0606C32.4478 31.7213 32.9111 31.4606 33.4104 31.2923C34.8658 30.702 36.2178 29.8827 37.4138 28.864C37.6541 28.67 37.8871 28.4836 38.1041 28.298C39.2104 27.3723 40.8414 27.4463 41.8598 28.4683V28.476L42.1541 28.6313" fill="#9D9490"/>
<path d="M42.1542 28.6313C42.2242 28.4993 42.2942 28.3677 42.3562 28.2357C42.4102 28.1347 42.4572 28.026 42.5028 27.9173L44.2412 23.8677C44.5052 23.2403 45.1205 22.833 45.8008 22.836C46.7385 22.838 47.4978 23.5973 47.4998 24.535C47.5008 24.7787 47.4478 25.02 47.3448 25.241L44.3032 31.9287C43.9338 32.7507 43.4155 33.4973 42.7752 34.1317L37.1655 39.7413L37.1425 41.1473L29.5908 40.905L29.6555 39.7413" fill="#9D9490"/>
<path d="M13.1373 33.31C12.8313 33.6096 12.3417 33.6096 12.0357 33.31L9.15733 30.4236C8.63333 29.9093 8.19133 29.318 7.84633 28.67C7.82133 28.6263 7.80333 28.5796 7.79199 28.5303C7.80733 28.5616 7.83066 28.6 7.84633 28.6313L8.14099 28.476V28.4683C8.42133 28.1863 8.76033 27.969 9.13399 27.8326C9.16399 27.8656 9.18999 27.902 9.21166 27.941C9.48866 28.452 9.83866 28.92 10.251 29.3296L13.1373 32.208C13.4397 32.5126 13.4397 33.0046 13.1373 33.31Z" fill="#685953"/>
<path d="M36.8649 33.31C37.1709 33.6096 37.6605 33.6096 37.9665 33.31L40.8452 30.4236C41.3692 29.9093 41.8112 29.318 42.1565 28.67C42.1812 28.6263 42.1995 28.5796 42.2109 28.5303C42.1955 28.5616 42.1722 28.6 42.1565 28.6313L41.8618 28.476V28.4683C41.5808 28.1863 41.2422 27.969 40.8689 27.8326C40.8385 27.8656 40.8125 27.902 40.7912 27.941C40.5145 28.452 40.1642 28.92 39.7518 29.3296L36.8655 32.208C36.5625 32.5126 36.5625 33.0046 36.8649 33.31Z" fill="#685953"/>
<path d="M12.5865 39.7416H21.1209C21.5495 39.7416 21.8969 40.0886 21.8969 40.5173V46.7243C21.8969 47.1523 21.5495 47.5 21.1209 47.5H12.5865C12.1579 47.5 11.8105 47.1523 11.8105 46.7243V40.5173C11.8109 40.0886 12.1582 39.7416 12.5865 39.7416Z" fill="#005C84"/>
<path d="M19.5691 44.3963H18.7931C18.3648 44.3963 18.0171 44.049 18.0171 43.6203C18.0171 43.192 18.3644 42.8447 18.7931 42.8447H19.5691C19.9974 42.8447 20.3448 43.192 20.3448 43.6203C20.3448 44.049 19.9974 44.3963 19.5691 44.3963Z" fill="#6A95A5"/>
<path d="M28.8795 39.7416H37.4138C37.8422 39.7416 38.1895 40.0886 38.1895 40.5173V46.7243C38.1895 47.1523 37.8422 47.5 37.4138 47.5H28.8795C28.4508 47.5 28.1035 47.1523 28.1035 46.7243V40.5173C28.1035 40.0886 28.4505 39.7416 28.8795 39.7416Z" fill="#005C84"/>
<path d="M31.2069 44.3963H30.4309C30.0026 44.3963 29.6553 44.049 29.6553 43.6203C29.6553 43.192 30.0026 42.8447 30.4309 42.8447H31.2069C31.6349 42.8447 31.9826 43.192 31.9826 43.6203C31.9826 44.049 31.6349 44.3963 31.2069 44.3963Z" fill="#6A95A5"/>
</svg>
