<svg width="50" height="50" viewBox="0 0 50 50" fill="none" xmlns="http://www.w3.org/2000/svg">
<g clip-path="url(#clip0_652_4729)">
<path d="M25 50C38.8071 50 50 38.8071 50 25C50 11.1929 38.8071 0 25 0C11.1929 0 0 11.1929 0 25C0 38.8071 11.1929 50 25 50Z" fill="#324A5E"/>
<path d="M50 25C50 35.1575 43.937 43.8976 35.2362 47.7953C34.1339 48.2677 32.9921 48.7008 31.811 49.0157C29.6457 49.6457 27.3228 49.9606 24.9606 49.9606C22.5984 49.9606 20.2756 49.6457 18.1102 49.0157C16.7717 48.622 15.5118 48.1496 14.2913 47.5591C5.86614 43.5827 0 35 0 25C0 11.1811 11.1811 0 25 0C38.8189 0 50 11.1811 50 25Z" fill="#324A5E"/>
<path d="M18.1495 49.0551C16.8109 48.6614 15.551 48.189 14.3306 47.5985L15.4329 23.4646L15.4723 22.0866L15.5117 21.5355H16.8896L16.929 22.3622L16.9684 23.5827L18.1495 49.0551Z" fill="#CED5E0"/>
<path d="M17.3621 19.7244L14.4881 7.51969C14.4487 7.28347 14.2125 7.16536 14.0156 7.20473L17.0471 20.1969C17.2833 20.1575 17.4015 19.9606 17.3621 19.7244Z" fill="white"/>
<path d="M14.0158 7.20471L13.937 16.7323L17.0472 20.1968L14.0158 7.20471Z" fill="#E6E9EE"/>
<path d="M14.4883 21.2598L5.35444 29.8425C5.19696 30 5.19696 30.2362 5.35444 30.4331L15.1182 21.2992C14.9214 21.1024 14.6458 21.1024 14.4883 21.2598Z" fill="white"/>
<path d="M5.31494 30.3937L13.5827 25.7086L15.0787 21.2598L5.31494 30.3937Z" fill="#E6E9EE"/>
<path d="M17.2441 22.9527L29.2519 26.5748C29.4488 26.6535 29.685 26.5354 29.7638 26.2992L16.9685 22.4409C16.9291 22.6771 17.0472 22.874 17.2441 22.9527Z" fill="white"/>
<path d="M29.7635 26.3386L21.5746 21.4961L16.9683 22.441L29.7635 26.3386Z" fill="#E6E9EE"/>
<path d="M16.3778 23.6614C17.6824 23.6614 18.74 22.6038 18.74 21.2992C18.74 19.9946 17.6824 18.937 16.3778 18.937C15.0732 18.937 14.0156 19.9946 14.0156 21.2992C14.0156 22.6038 15.0732 23.6614 16.3778 23.6614Z" fill="white"/>
<path d="M16.3779 22.4803C17.0302 22.4803 17.559 21.9515 17.559 21.2992C17.559 20.6469 17.0302 20.1181 16.3779 20.1181C15.7256 20.1181 15.1968 20.6469 15.1968 21.2992C15.1968 21.9515 15.7256 22.4803 16.3779 22.4803Z" fill="#E6E9EE"/>
<path d="M35.2362 47.7953C34.1339 48.2677 32.9921 48.7008 31.811 49.0158L32.8347 26.5748L32.874 25.3937L32.9134 24.8032H34.1732L34.2126 25.3937L34.252 26.5748L35.2362 47.7953Z" fill="#CED5E0"/>
<path d="M34.567 25.9843L45.7874 27.9134C45.9843 27.9528 46.1811 27.7953 46.2205 27.5985L34.2914 25.5512C34.2126 25.7481 34.3308 25.9449 34.567 25.9843Z" fill="white"/>
<path d="M46.1811 27.5984L38.2677 24.1732L34.252 25.5512L46.1811 27.5984Z" fill="#E6E9EE"/>
<path d="M34.2913 23.0709L30.3543 12.4016C30.2755 12.2047 30.0787 12.126 29.8818 12.1654L34.0551 23.5039C34.2519 23.4646 34.3307 23.2284 34.2913 23.0709Z" fill="white"/>
<path d="M29.8818 12.1653L30.8661 20.7087L34.0551 23.5039L29.8818 12.1653Z" fill="#E6E9EE"/>
<path d="M31.8896 24.7244L24.6062 33.5039C24.4881 33.6614 24.4881 33.8976 24.6455 34.0158L32.3621 24.7244C32.244 24.5669 32.0077 24.6063 31.8896 24.7244Z" fill="white"/>
<path d="M24.6851 34.0158L31.5748 28.8583L32.4016 24.6851L24.6851 34.0158Z" fill="#E6E9EE"/>
<path d="M33.5825 26.7323C34.7567 26.7323 35.7085 25.7804 35.7085 24.6063C35.7085 23.4321 34.7567 22.4803 33.5825 22.4803C32.4084 22.4803 31.4565 23.4321 31.4565 24.6063C31.4565 25.7804 32.4084 26.7323 33.5825 26.7323Z" fill="white"/>
<path d="M33.5825 25.6693C34.1696 25.6693 34.6455 25.1934 34.6455 24.6063C34.6455 24.0193 34.1696 23.5433 33.5825 23.5433C32.9955 23.5433 32.5195 24.0193 32.5195 24.6063C32.5195 25.1934 32.9955 25.6693 33.5825 25.6693Z" fill="#E6E9EE"/>
</g>
<defs>
<clipPath id="clip0_652_4729">
<rect width="50" height="50" fill="white"/>
</clipPath>
</defs>
</svg>
