<svg width="50" height="50" viewBox="0 0 50 50" fill="none" xmlns="http://www.w3.org/2000/svg">
<path d="M7.0718 46.4684C7.0718 46.611 6.95634 46.7261 6.81395 46.7261C6.67086 46.7261 6.55469 46.6103 6.55469 46.4684V22.4433C6.55469 22.3015 6.67086 22.1864 6.81395 22.1864C6.95634 22.1864 7.0718 22.3015 7.0718 22.4433V46.4684Z" fill="#ACBAC8"/>
<path d="M8.57133 46.4684C8.57133 46.611 8.45585 46.7261 8.31205 46.7261C8.16966 46.7261 8.0542 46.6103 8.0542 46.4684V22.4433C8.0542 22.3015 8.16966 22.1864 8.31205 22.1864C8.45585 22.1864 8.57133 22.3015 8.57133 22.4433V46.4684Z" fill="#ACBAC8"/>
<path d="M9.86853 23.4005C9.93795 23.6003 9.83028 23.8184 9.63052 23.8876L5.61895 25.2591C5.41777 25.3283 5.19889 25.2217 5.13159 25.0213L4.70797 23.793C4.63784 23.5932 4.74552 23.3758 4.94599 23.3066L8.95826 21.9351C9.15802 21.8659 9.37692 21.9725 9.44563 22.173L9.86853 23.4005Z" fill="#ACBAC8"/>
<path d="M48.3514 46.3266C48.3514 46.4684 48.2359 46.5835 48.0935 46.5835C47.9504 46.5835 47.835 46.4684 47.835 46.3266V19.4546C47.835 19.3113 47.9504 19.197 48.0935 19.197C48.2359 19.197 48.3514 19.3113 48.3514 19.4546V46.3266Z" fill="#ACBAC8"/>
<path d="M49.1127 47.4856C49.1127 47.7292 48.9172 47.9254 48.6721 47.9254H47.5146C47.2702 47.9254 47.0732 47.7292 47.0732 47.4856V42.814C47.0732 42.5705 47.2702 42.3743 47.5146 42.3743H48.6721C48.9172 42.3743 49.1127 42.5705 49.1127 42.814V47.4856Z" fill="#5C6A78"/>
<path d="M49.5957 28.4533C49.5957 29.2806 48.9235 29.9512 48.0933 29.9512C47.2616 29.9512 46.5894 29.2806 46.5894 28.4533C46.5894 27.6253 47.2616 26.954 48.0933 26.954C48.9235 26.954 49.5957 27.6246 49.5957 28.4533Z" fill="#6C7A88"/>
<path d="M47.5775 19.228C47.5159 19.0409 47.5379 18.8306 47.6533 18.6541C48.9574 16.6818 48.9964 12.8086 47.7546 9.01583C46.5128 5.22236 44.1879 2.11855 41.9693 1.29265C41.6236 1.16347 41.4479 0.778052 41.5761 0.434282C41.7072 0.0883945 42.0918 -0.0866672 42.4382 0.0425113C45.0585 1.01876 47.6448 4.37811 49.0283 8.60218C50.4103 12.8255 50.3112 17.0602 48.7733 19.3868C48.57 19.6946 48.1548 19.7807 47.8453 19.5774C47.7142 19.4913 47.6228 19.3663 47.5775 19.228Z" fill="#E47E30"/>
<path d="M43.6963 10.3351C43.6913 10.3196 43.6871 10.3034 43.6842 10.2864L41.7936 0.747694C41.749 0.522514 41.897 0.303692 42.1223 0.258515C42.3497 0.214044 42.57 0.360161 42.6139 0.587458L44.4946 10.0761L48.5926 18.844C48.6904 19.0522 48.599 19.3007 48.3886 19.3988C48.1811 19.4962 47.931 19.4052 47.8332 19.1969L43.7154 10.381C43.709 10.3676 43.702 10.3507 43.6963 10.3351Z" fill="#E47E30"/>
<path d="M44.6584 12.9131C44.4834 12.9702 44.2943 12.8742 44.2362 12.6992L42.7344 8.11016C42.677 7.9351 42.7727 7.74734 42.9484 7.68945L44.4338 7.20662C44.6088 7.14873 44.7979 7.24544 44.8553 7.4198L46.3585 12.0088C46.4159 12.1839 46.3203 12.3716 46.1446 12.4295L44.6584 12.9131Z" fill="#E47E30"/>
<path d="M44.2475 8.96009C44.0732 9.01656 43.7268 8.44548 43.6702 8.26972L43.532 7.85112C43.4761 7.67535 43.5724 7.48618 43.7474 7.429L47.2184 6.30098C47.3934 6.24309 47.5826 6.3391 47.6399 6.51487L47.7774 6.93417C47.834 7.10852 47.7391 7.297 47.5627 7.35488L44.2475 8.96009Z" fill="#E47E30"/>
<path d="M45.4575 12.6519C45.2818 12.7084 45.0919 12.6124 45.0353 12.4373L44.8978 12.0187C44.8412 11.8429 44.7803 11.1787 44.9566 11.1215L48.5828 10.4693C48.7585 10.4121 48.9477 10.5081 49.0043 10.6832L49.1425 11.1025C49.1991 11.2775 49.1042 11.466 48.9285 11.5232L45.4575 12.6519Z" fill="#E47E30"/>
<path d="M44.7234 10.8865C44.7985 11.1187 44.6717 11.3679 44.4386 11.4434L3.91924 24.6189C3.68619 24.6937 3.4347 24.5674 3.35962 24.3351L2.83612 22.7377C2.76103 22.5062 2.88713 22.2556 3.1209 22.1801L43.6396 9.00527C43.8727 8.92974 44.1241 9.05609 44.1999 9.28833L44.7234 10.8865Z" fill="#BCCAD8"/>
<path d="M30.4489 17.4167C30.4489 18.6844 29.4182 19.7115 28.1467 19.7115C26.8744 19.7115 25.8438 18.6844 25.8438 17.4167C25.8438 16.1503 26.8744 15.1225 28.1467 15.1225C29.4182 15.1225 30.4489 16.151 30.4489 17.4167Z" fill="#5C6A78"/>
<path d="M33.2555 42.9389H22.7842C22.5632 42.9389 22.3833 42.7603 22.3833 42.5401C22.3833 42.3206 22.5632 42.142 22.7842 42.142H33.2555C33.4758 42.142 33.6551 42.3206 33.6551 42.5401C33.6551 42.7603 33.4758 42.9389 33.2555 42.9389Z" fill="#9CAAB8"/>
<path d="M31.2263 26.8213H24.8133C24.593 26.8213 24.4131 26.6427 24.4131 26.4225C24.4131 26.2029 24.593 26.0244 24.8133 26.0244H31.2263C31.448 26.0244 31.6258 26.2022 31.6258 26.4225C31.6258 26.6427 31.4473 26.8213 31.2263 26.8213Z" fill="#9CAAB8"/>
<path d="M22.9821 42.3538C22.8284 42.3538 22.6824 42.2648 22.6166 42.1173C22.5252 41.9154 22.6166 41.6796 22.8178 41.59L32.8945 37.1026C33.0971 37.013 33.3322 37.1033 33.4222 37.3045C33.5129 37.5057 33.4222 37.7415 33.221 37.8311L23.1443 42.3185C23.0912 42.3411 23.0352 42.3538 22.9821 42.3538Z" fill="#9CAAB8"/>
<path d="M33.0624 32.7557C33.0249 32.851 32.9533 32.9301 32.8513 32.976L31.5606 33.5506L24.0057 36.9163L23.5148 37.1351C23.4617 37.1591 23.4065 37.169 23.3519 37.169C23.1975 37.169 23.0537 37.0814 22.9864 36.9325C22.8957 36.7334 22.9864 36.497 23.1869 36.4059L24.1361 35.9838L31.4437 32.7296L32.5262 32.2482C32.7018 32.1712 32.8995 32.227 33.0071 32.3731L33.0624 32.7557Z" fill="#9CAAB8"/>
<path d="M24.0218 32.8179C23.8688 32.8179 23.7229 32.7303 23.6563 32.5828C23.5656 32.3809 23.6563 32.1459 23.8582 32.0555L31.8529 28.4872C32.0541 28.3976 32.2914 28.4872 32.3821 28.6884C32.4728 28.8896 32.3821 29.1253 32.1802 29.2164L24.1847 32.7833C24.1323 32.8066 24.0763 32.8179 24.0218 32.8179Z" fill="#9CAAB8"/>
<path d="M32.2003 26.6844C32.1628 26.726 32.1181 26.7634 32.0615 26.7874L30.6872 27.3994L24.9947 29.9343L24.3061 30.2399C24.253 30.2646 24.1963 30.2745 24.1411 30.2745C23.9881 30.2745 23.8421 30.1863 23.7755 30.0388C23.687 29.8383 23.7784 29.6025 23.9774 29.5115L25.125 29.0011L30.5696 26.5764L31.7342 26.0582C31.8645 25.9996 32.0091 26.0152 32.1182 26.09L32.2003 26.6844Z" fill="#9CAAB8"/>
<path d="M33.0579 42.3538C33.0026 42.3538 32.9481 42.3411 32.895 42.3185L22.8182 37.8311C22.617 37.7415 22.5257 37.5057 22.617 37.3045C22.7063 37.1033 22.9422 37.013 23.1448 37.1026L33.2215 41.59C33.4227 41.6789 33.5134 41.9154 33.4227 42.1173C33.3561 42.2655 33.2102 42.3538 33.0579 42.3538Z" fill="#9CAAB8"/>
<path d="M32.5142 37.169C32.4597 37.169 32.4044 37.1584 32.352 37.1344L23.3626 33.132C23.1615 33.0416 23.0708 32.8065 23.1608 32.6046C23.25 32.4035 23.4873 32.3138 23.6885 32.4035L32.6779 36.4059C32.8805 36.4962 32.9697 36.732 32.8805 36.9332C32.8139 37.0814 32.6672 37.169 32.5142 37.169Z" fill="#9CAAB8"/>
<path d="M31.8968 32.6308C31.843 32.6308 31.787 32.6195 31.7339 32.5955L23.9785 29.1423C23.7774 29.0519 23.6874 28.8162 23.7767 28.6157C23.8673 28.4152 24.1032 28.3242 24.3058 28.4138L32.0612 31.8684C32.2624 31.9588 32.353 32.1939 32.2631 32.395C32.1965 32.5426 32.0506 32.6308 31.8968 32.6308Z" fill="#9CAAB8"/>
<path d="M31.6326 30.1129C31.5781 30.1129 31.5228 30.1009 31.4697 30.0776L24.2421 26.858C24.0409 26.769 23.9495 26.5333 24.0409 26.3328C24.1301 26.1316 24.3667 26.0406 24.5686 26.1316L31.7955 29.3498C31.9981 29.4387 32.0874 29.6745 31.9981 29.8764C31.9322 30.0246 31.7856 30.1129 31.6326 30.1129Z" fill="#9CAAB8"/>
<path d="M21.7482 47.9254C21.7106 47.9254 21.6731 47.9232 21.6348 47.9183C21.197 47.8569 20.8931 47.4531 20.9541 47.0162L24.8714 19.396C24.9337 18.9604 25.3368 18.6555 25.7753 18.7169C26.2131 18.7797 26.5184 19.1828 26.4561 19.619L22.5387 47.2399C22.482 47.6381 22.1392 47.9254 21.7482 47.9254Z" fill="#7C8A98"/>
<path d="M34.4039 47.9169C34.3657 47.9225 34.3296 47.924 34.2913 47.924C33.8996 47.924 33.5553 47.6367 33.5001 47.2385L31.5605 33.5498L31.4436 32.7289L30.6878 27.3994L30.5702 26.577L29.5841 19.6198C29.5225 19.1842 29.8264 18.7797 30.2635 18.7183C30.7034 18.6548 31.1071 18.9604 31.1681 19.3967L32.118 26.0907L32.2002 26.6836L33.007 32.3717L33.0623 32.755L35.0847 47.0148C35.1485 47.451 34.8417 47.8555 34.4039 47.9169Z" fill="#7C8A98"/>
<path d="M28.0158 47.9254C27.6418 47.9254 27.3379 47.7475 27.3379 47.5273V19.9064C27.3379 19.6861 27.6418 19.5082 28.0158 19.5082C28.3891 19.5082 28.6923 19.6861 28.6923 19.9064V47.5273C28.693 47.7475 28.3898 47.9254 28.0158 47.9254Z" fill="#3C4A58"/>
<path d="M32.5403 20.2883C32.5403 20.6518 32.2442 20.9483 31.878 20.9483H24.1602C23.7946 20.9483 23.4985 20.6525 23.4985 20.2883V19.1348C23.4985 18.7713 23.7946 18.4755 24.1602 18.4755H31.8787C32.2449 18.4755 32.541 18.7713 32.541 19.1348V20.2883H32.5403Z" fill="#EF893A"/>
<path d="M12.0362 44.7757C12.0362 45.1427 11.7373 45.4406 11.3697 45.4406H2.76495C2.39589 45.4406 2.09766 45.1427 2.09766 44.7757V39.5076C2.09766 39.1405 2.39589 38.8427 2.76495 38.8427H11.3697C11.738 38.8427 12.0362 39.1405 12.0362 39.5076V44.7757Z" fill="#3C4A58"/>
<path d="M49.5959 48.8614C49.5959 49.4903 49.0844 50 48.454 50H1.14262C0.511456 50 0 49.4903 0 48.8614V46.2884C0 45.6594 0.512164 45.1484 1.14262 45.1484H48.454C49.0852 45.1484 49.5959 45.6594 49.5959 46.2884V48.8614Z" fill="#4D5A68"/>
<path d="M43.6753 12.1077C43.4479 12.1832 43.2028 12.0611 43.1262 11.8352L42.2847 9.33068C42.2089 9.10409 42.3307 8.85844 42.5588 8.78432L43.6299 8.42573C43.8566 8.3502 44.1017 8.47231 44.1789 8.6989L45.019 11.2034C45.0955 11.43 44.9737 11.6749 44.7456 11.7505L43.6753 12.1077Z" fill="#5C6A78"/>
</svg>
