<svg width="49" height="50" viewBox="0 0 49 50" fill="none" xmlns="http://www.w3.org/2000/svg">
<path d="M44.9002 38.4705H10.9245C8.93642 38.4705 7.32471 36.8474 7.32471 34.8451V6.41516C7.32471 4.41298 8.93633 2.78979 10.9245 2.78979H44.9002C46.8883 2.78979 48.5 4.41288 48.5 6.41516V34.8451C48.5 36.8474 46.8883 38.4705 44.9002 38.4705Z" fill="#14A085"/>
<path d="M44.202 13.3231H27.528C27.4111 13.3231 27.3164 13.2277 27.3164 13.11V7.04119C27.3164 6.92348 27.4111 6.82812 27.528 6.82812H44.202C44.3189 6.82812 44.4135 6.92348 44.4135 7.04119V13.11C44.4135 13.2276 44.3189 13.3231 44.202 13.3231Z" fill="#9FC9D3"/>
<path d="M31.0283 18.4949V20.9743C31.0283 21.1175 30.9131 21.2336 30.7709 21.2336H28.3097C28.1675 21.2336 28.0522 21.1175 28.0522 20.9743V18.4949C28.0522 18.3517 28.1675 18.2357 28.3097 18.2357H30.7709C30.9131 18.2357 31.0283 18.3517 31.0283 18.4949Z" fill="#ECF0F1"/>
<path d="M34.6349 18.2357H37.0961C37.2383 18.2357 37.3535 18.3517 37.3535 18.4949V20.9743C37.3535 21.1175 37.2383 21.2336 37.0961 21.2336H34.6349C34.4926 21.2336 34.3774 21.1175 34.3774 20.9743V18.4949C34.3774 18.3517 34.4926 18.2357 34.6349 18.2357Z" fill="#ECF0F1"/>
<path d="M43.6784 18.4949V20.9743C43.6784 21.1175 43.5632 21.2336 43.421 21.2336H40.9591C40.8169 21.2336 40.7017 21.1175 40.7017 20.9743V18.4949C40.7017 18.3517 40.8169 18.2357 40.9591 18.2357H43.421C43.5631 18.2357 43.6784 18.3517 43.6784 18.4949Z" fill="#ECF0F1"/>
<path d="M31.0283 24.8651V27.3446C31.0283 27.4878 30.9131 27.6038 30.7709 27.6038H28.3097C28.1675 27.6038 28.0522 27.4878 28.0522 27.3446V24.8651C28.0522 24.7219 28.1675 24.6059 28.3097 24.6059H30.7709C30.9131 24.6059 31.0283 24.7219 31.0283 24.8651Z" fill="#ECF0F1"/>
<path d="M37.3535 24.8651V27.3446C37.3535 27.4878 37.2383 27.6038 37.0961 27.6038H34.6349C34.4926 27.6038 34.3774 27.4878 34.3774 27.3446V24.8651C34.3774 24.7219 34.4926 24.6059 34.6349 24.6059H37.0961C37.2383 24.6059 37.3535 24.7219 37.3535 24.8651Z" fill="#ECF0F1"/>
<path d="M43.6784 24.8651V27.3446C43.6784 27.4878 43.5632 27.6038 43.421 27.6038H40.9591C40.8169 27.6038 40.7017 27.4878 40.7017 27.3446V24.8651C40.7017 24.7219 40.8169 24.6059 40.9591 24.6059H43.421C43.5631 24.6059 43.6784 24.7219 43.6784 24.8651Z" fill="#ECF0F1"/>
<path d="M31.0283 31.2353V33.7147C31.0283 33.858 30.9131 33.974 30.7709 33.974H28.3097C28.1675 33.974 28.0522 33.858 28.0522 33.7147V31.2353C28.0522 31.0921 28.1675 30.9761 28.3097 30.9761H30.7709C30.9131 30.9761 31.0283 31.0922 31.0283 31.2353Z" fill="#ECF0F1"/>
<path d="M37.3535 31.2353V33.7147C37.3535 33.858 37.2383 33.974 37.0961 33.974H34.6349C34.4926 33.974 34.3774 33.858 34.3774 33.7147V31.2353C34.3774 31.0921 34.4926 30.9761 34.6349 30.9761H37.0961C37.2383 30.9761 37.3535 31.0922 37.3535 31.2353Z" fill="#ECF0F1"/>
<path d="M43.6784 31.2353V33.7147C43.6784 33.858 43.5632 33.974 43.421 33.974H40.9591C40.8169 33.974 40.7017 33.858 40.7017 33.7147V31.2353C40.7017 31.0921 40.8169 30.9761 40.9591 30.9761H43.421C43.5631 30.9761 43.6784 31.0922 43.6784 31.2353Z" fill="#ECF0F1"/>
<path d="M43.6784 18.4949V20.9743C43.6784 21.1175 43.5632 21.2336 43.421 21.2336H40.9591C40.8169 21.2336 40.7017 21.1175 40.7017 20.9743V18.4949C40.7017 18.3517 40.8169 18.2357 40.9591 18.2357H43.421C43.5631 18.2357 43.6784 18.3517 43.6784 18.4949Z" fill="#ECF0F1"/>
<path d="M43.6784 24.8651V27.3446C43.6784 27.4878 43.5632 27.6038 43.421 27.6038H40.9591C40.8169 27.6038 40.7017 27.4878 40.7017 27.3446V24.8651C40.7017 24.7219 40.8169 24.6059 40.9591 24.6059H43.421C43.5631 24.6059 43.6784 24.7219 43.6784 24.8651Z" fill="#ECF0F1"/>
<path d="M40.9591 30.9761H43.421C43.5632 30.9761 43.6784 31.0921 43.6784 31.2353V33.7147C43.6784 33.858 43.5632 33.974 43.421 33.974H40.9591C40.8169 33.974 40.7017 33.858 40.7017 33.7147V31.2353C40.7017 31.0922 40.817 30.9761 40.9591 30.9761Z" fill="#ECF0F1"/>
<path d="M37.3535 18.4949V20.9743C37.3535 21.1175 37.2383 21.2336 37.0961 21.2336H34.6349C34.4926 21.2336 34.3774 21.1175 34.3774 20.9743V18.4949C34.3774 18.3517 34.4926 18.2357 34.6349 18.2357H37.0961C37.2383 18.2357 37.3535 18.3517 37.3535 18.4949Z" fill="#ECF0F1"/>
<path d="M37.3535 24.8651V27.3446C37.3535 27.4878 37.2383 27.6038 37.0961 27.6038H34.6349C34.4926 27.6038 34.3774 27.4878 34.3774 27.3446V24.8651C34.3774 24.7219 34.4926 24.6059 34.6349 24.6059H37.0961C37.2383 24.6059 37.3535 24.7219 37.3535 24.8651Z" fill="#ECF0F1"/>
<path d="M34.6349 30.9761H37.0961C37.2383 30.9761 37.3535 31.0921 37.3535 31.2353V33.7147C37.3535 33.858 37.2383 33.974 37.0961 33.974H34.6349C34.4926 33.974 34.3774 33.858 34.3774 33.7147V31.2353C34.3774 31.0922 34.4926 30.9761 34.6349 30.9761Z" fill="#ECF0F1"/>
<path d="M31.0283 18.4949V20.9743C31.0283 21.1175 30.9131 21.2336 30.7709 21.2336H28.3097C28.1675 21.2336 28.0522 21.1175 28.0522 20.9743V18.4949C28.0522 18.3517 28.1675 18.2357 28.3097 18.2357H30.7709C30.9131 18.2357 31.0283 18.3517 31.0283 18.4949Z" fill="#ECF0F1"/>
<path d="M31.0283 24.8651V27.3446C31.0283 27.4878 30.9131 27.6038 30.7709 27.6038H28.3097C28.1675 27.6038 28.0522 27.4878 28.0522 27.3446V24.8651C28.0522 24.7219 28.1675 24.6059 28.3097 24.6059H30.7709C30.9131 24.6059 31.0283 24.7219 31.0283 24.8651Z" fill="#ECF0F1"/>
<path d="M28.3097 30.9761H30.7709C30.9131 30.9761 31.0283 31.0921 31.0283 31.2353V33.7147C31.0283 33.858 30.9131 33.974 30.7709 33.974H28.3097C28.1675 33.974 28.0522 33.858 28.0522 33.7147V31.2353C28.0522 31.0922 28.1675 30.9761 28.3097 30.9761Z" fill="#ECF0F1"/>
<path d="M19.6487 41.2604H15.5743C13.9064 41.2604 12.5542 39.8986 12.5542 38.2188V3.04159C12.5542 1.36179 13.9064 0 15.5743 0H19.6487C21.3167 0 22.6688 1.36179 22.6688 3.04159V38.2188C22.6688 39.8986 21.3167 41.2604 19.6487 41.2604Z" fill="#81CCB8"/>
<path d="M19.2419 41.2604H15.9806V42.9855H17.0763C17.0475 46.265 14.3906 48.9244 11.1276 48.9244H7.5179C4.23715 48.9244 1.56794 46.2362 1.56794 42.9321V26.2651C1.56794 23.0255 4.13322 20.3782 7.32502 20.2757V19.1994C3.54368 19.3027 0.5 22.4325 0.5 26.2651V42.9321C0.5 46.8292 3.6476 50 7.51799 50H11.1277C14.9795 50 18.1163 46.8581 18.145 42.9856H19.2419V41.2604Z" fill="#0F363A"/>
</svg>
