<svg width="50" height="50" viewBox="0 0 50 50" fill="none" xmlns="http://www.w3.org/2000/svg">
<path d="M36.0515 16.2011L21.3761 7.06571C21.0939 6.89652 20.7553 7.00933 20.586 7.23491L11.4421 21.8967C11.3292 22.0659 11.3292 22.2914 11.4421 22.4606C11.5549 22.6297 11.7243 22.7425 11.9501 22.7425H32.3262C32.4955 22.7425 32.7213 22.6297 32.7778 22.4606L36.2208 16.9342C36.3902 16.7086 36.3337 16.3703 36.0515 16.2011Z" fill="#8AA8F7"/>
<path d="M31.7619 19.3582C31.7055 19.1891 31.649 19.0763 31.5361 19.0199C31.141 18.7379 30.8024 18.3432 30.6894 17.8921C30.5766 17.4409 30.633 16.9334 30.9152 16.4823C30.9717 16.3695 31.0281 16.2003 30.9717 16.0312C30.9152 15.862 30.8588 15.7492 30.7459 15.6928L24.1984 11.6326C23.9162 11.4634 23.5775 11.5762 23.4082 11.8018C23.126 12.1965 22.7309 12.5349 22.2793 12.6477C21.8278 12.7604 21.3198 12.6477 20.8682 12.4221C20.7554 12.3657 20.5861 12.3093 20.4167 12.3657C20.2474 12.4221 20.1345 12.4785 20.078 12.5913L14.2643 21.8959C14.1515 22.065 14.1515 22.2906 14.2643 22.4598C14.3773 22.6289 14.5466 22.7417 14.7723 22.7417H29.5041C29.6735 22.7417 29.8992 22.6289 29.9557 22.4598L31.649 19.753C31.7619 19.6966 31.7619 19.5274 31.7619 19.3582Z" fill="#D6D6FF"/>
<path d="M35.7131 21.6705H10.8778C9.29742 21.6705 8.05566 22.9111 8.05566 24.4901V40.2797C8.05566 41.8586 9.29742 43.0993 10.8778 43.0993H35.7131C37.2935 43.0993 38.5352 41.8586 38.5352 40.2797V24.4901C38.5352 22.9111 37.2935 21.6705 35.7131 21.6705Z" fill="#00AAFF"/>
<path d="M14.8289 40.8441H10.8779C10.5392 40.8441 10.3135 40.6185 10.3135 40.2802C10.3135 39.9418 10.5392 39.7162 10.8779 39.7162H14.8289C15.1676 39.7162 15.3934 39.9418 15.3934 40.2802C15.3934 40.6185 15.1676 40.8441 14.8289 40.8441Z" fill="#00008E"/>
<path d="M19.9089 38.5884H10.8779C10.5392 38.5884 10.3135 38.3628 10.3135 38.0244C10.3135 37.6861 10.5392 37.4605 10.8779 37.4605H19.9089C20.2476 37.4605 20.4733 37.6861 20.4733 38.0244C20.4733 38.3628 20.2476 38.5884 19.9089 38.5884Z" fill="#00008E"/>
<path d="M40.2287 28.4376H30.0688C28.4884 28.4376 27.2466 29.6782 27.2466 31.2572V33.5129C27.2466 35.0918 28.4884 36.3324 30.0688 36.3324H40.2287C41.1882 36.3324 41.922 35.5993 41.922 34.6407V30.1294C41.922 29.1707 41.1882 28.4376 40.2287 28.4376Z" fill="#00008E"/>
<path d="M30.0688 34.0769C29.7301 34.0769 29.5044 33.8513 29.5044 33.513V31.2573C29.5044 30.919 29.7301 30.6934 30.0688 30.6934C30.4075 30.6934 30.6332 30.919 30.6332 31.2573V33.513C30.6332 33.8513 30.4075 34.0769 30.0688 34.0769Z" fill="#1F1FFF"/>
</svg>
